<?xml version="1.0" encoding="UTF-8" standalone="no"?>
<!-- Created with Inkscape (http://www.inkscape.org/) -->

<svg
   xmlns:dc="http://purl.org/dc/elements/1.1/"
   xmlns:cc="http://creativecommons.org/ns#"
   xmlns:rdf="http://www.w3.org/1999/02/22-rdf-syntax-ns#"
   xmlns:svg="http://www.w3.org/2000/svg"
   xmlns="http://www.w3.org/2000/svg"
   xmlns:sodipodi="http://sodipodi.sourceforge.net/DTD/sodipodi-0.dtd"
   xmlns:inkscape="http://www.inkscape.org/namespaces/inkscape"
   width="1062.9921"
   height="761.81104"
   id="svg6535"
   version="1.1"
   inkscape:version="0.48.4 r9939"
   sodipodi:docname="mesh_try.svg">
  <defs
     id="defs3">
    <filter
       inkscape:collect="always"
       id="filter11736">
      <feGaussianBlur
         inkscape:collect="always"
         stdDeviation="8.7472325"
         id="feGaussianBlur11738" />
    </filter>
    <filter
       inkscape:collect="always"
       id="filter11740">
      <feGaussianBlur
         inkscape:collect="always"
         stdDeviation="1.9923756"
         id="feGaussianBlur11742" />
    </filter>
    <filter
       inkscape:collect="always"
       id="filter11744">
      <feGaussianBlur
         inkscape:collect="always"
         stdDeviation="8.7472331"
         id="feGaussianBlur11746" />
    </filter>
    <filter
       inkscape:collect="always"
       id="filter11748">
      <feGaussianBlur
         inkscape:collect="always"
         stdDeviation="1.9923756"
         id="feGaussianBlur11750" />
    </filter>
    <filter
       inkscape:collect="always"
       id="filter11752">
      <feGaussianBlur
         inkscape:collect="always"
         stdDeviation="8.7472328"
         id="feGaussianBlur11754" />
    </filter>
    <filter
       inkscape:collect="always"
       id="filter11756">
      <feGaussianBlur
         inkscape:collect="always"
         stdDeviation="1.9923756"
         id="feGaussianBlur11758" />
    </filter>
    <filter
       inkscape:collect="always"
       id="filter11760">
      <feGaussianBlur
         inkscape:collect="always"
         stdDeviation="1.9923756"
         id="feGaussianBlur11762" />
    </filter>
    <filter
       inkscape:collect="always"
       id="filter11764">
      <feGaussianBlur
         inkscape:collect="always"
         stdDeviation="8.7472332"
         id="feGaussianBlur11766" />
    </filter>
    <filter
       inkscape:collect="always"
       id="filter11768">
      <feGaussianBlur
         inkscape:collect="always"
         stdDeviation="1.9923756"
         id="feGaussianBlur11770" />
    </filter>
    <filter
       inkscape:collect="always"
       id="filter11772">
      <feGaussianBlur
         inkscape:collect="always"
         stdDeviation="1.9923756"
         id="feGaussianBlur11774" />
    </filter>
    <filter
       inkscape:collect="always"
       id="filter11776">
      <feGaussianBlur
         inkscape:collect="always"
         stdDeviation="1.9923756"
         id="feGaussianBlur11778" />
    </filter>
    <filter
       inkscape:collect="always"
       id="filter11780">
      <feGaussianBlur
         inkscape:collect="always"
         stdDeviation="1.9923756"
         id="feGaussianBlur11782" />
    </filter>
  </defs>
  <sodipodi:namedview
     inkscape:document-units="mm"
     id="base"
     pagecolor="#ffffff"
     bordercolor="#666666"
     borderopacity="1.0"
     inkscape:pageopacity="0.0"
     inkscape:pageshadow="2"
     inkscape:zoom="0.12374369"
     inkscape:cx="-279.51735"
     inkscape:cy="2239.6957"
     inkscape:current-layer="layer1"
     showgrid="false"
     units="mm"
     inkscape:window-width="1428"
     inkscape:window-height="982"
     inkscape:window-x="1147"
     inkscape:window-y="8"
     inkscape:window-maximized="0" />
  <metadata
     id="metadata4">
    <rdf:RDF>
      <cc:Work
         rdf:about="">
        <dc:format>image/svg+xml</dc:format>
        <dc:type
           rdf:resource="http://purl.org/dc/dcmitype/StillImage" />
        <dc:title></dc:title>
      </cc:Work>
    </rdf:RDF>
  </metadata>
  <g
     inkscape:label="Layer 1"
     inkscape:groupmode="layer"
     id="layer1"
     transform="translate(0,-290.55118)"
     style="display:inline">
    <path
       style="opacity:0.90707966;fill:none;stroke:#d4e9fe;stroke-width:6.75980186;stroke-linecap:butt;stroke-linejoin:miter;stroke-miterlimit:4;stroke-opacity:0.92156863;stroke-dasharray:none;display:inline"
       d="m 33.717978,354.42482 0,12.8759 36.695,0 0,13.5196 -18.67,0 0,32.1895 0,25.1078 -28.97,0 0,13.5196"
       id="path11383"
       inkscape:connector-curvature="0" />
    <path
       style="opacity:0.90707966;fill:none;stroke:#fed4e4;stroke-width:6.75980186;stroke-linecap:butt;stroke-linejoin:miter;stroke-miterlimit:4;stroke-opacity:0.92156863;stroke-dasharray:none;display:inline"
       d="m 351.74998,433.61112 -236.272,-0.8536 0,-19.7477 -64.379002,0 -45.0649999,0 0,-55.366"
       id="path11385"
       inkscape:connector-curvature="0"
       sodipodi:nodetypes="cccccc" />
    <path
       sodipodi:type="arc"
       style="opacity:0.90707966;fill:#d4e9fe;fill-opacity:0.92156863;stroke:#2d5e99;stroke-width:20;stroke-linecap:round;stroke-linejoin:round;stroke-miterlimit:4;stroke-opacity:1;stroke-dasharray:none;display:inline"
       id="path11387"
       sodipodi:cx="8467.0986"
       sodipodi:cy="-3184.2175"
       sodipodi:rx="115.15739"
       sodipodi:ry="115.15739"
       d="m 8582.256,-3184.2175 a 115.15739,115.15739 0 1 1 -230.3148,0 115.15739,115.15739 0 1 1 230.3148,0 z"
       transform="matrix(0.11020621,0,0,0.11020621,-883.08702,764.73892)" />
    <path
       inkscape:connector-curvature="0"
       id="path11389"
       d="m 215.81598,547.43252 10.33,7.6863 21.905,-29.44 10.846,8.0707 -11.144,14.9781 25.825,19.2159 20.143,14.9883 -17.295,23.2424 10.846,8.0706"
       style="opacity:0.90707966;fill:none;stroke:#fed4e4;stroke-width:6.75980186;stroke-linecap:butt;stroke-linejoin:miter;stroke-miterlimit:4;stroke-opacity:0.92156863;stroke-dasharray:none;display:inline" />
    <path
       inkscape:connector-curvature="0"
       id="path11391"
       d="m 418.68698,500.24352 -91.92,27.8349 -15.142,-11.2677 -38.432,51.6494 -26.902,36.1547 -44.419,-33.0513"
       style="opacity:0.90707966;fill:none;stroke:#d4e9fe;stroke-width:6.75980186;stroke-linecap:butt;stroke-linejoin:miter;stroke-miterlimit:4;stroke-opacity:0.92156863;stroke-dasharray:none;display:inline"
       sodipodi:nodetypes="cccccc" />
    <path
       transform="matrix(0.06578861,-0.08841531,0.08841531,0.06578861,-2.2950219,1527.8991)"
       d="m 8582.256,-3184.2175 a 115.15739,115.15739 0 1 1 -230.3148,0 115.15739,115.15739 0 1 1 230.3148,0 z"
       sodipodi:ry="115.15739"
       sodipodi:rx="115.15739"
       sodipodi:cy="-3184.2175"
       sodipodi:cx="8467.0986"
       id="path11393"
       style="opacity:0.90707966;fill:#d4e9fe;fill-opacity:0.92156863;stroke:#2d5e99;stroke-width:20;stroke-linecap:round;stroke-linejoin:round;stroke-miterlimit:4;stroke-opacity:1;stroke-dasharray:none;display:inline"
       sodipodi:type="arc" />
    <path
       style="opacity:0.90707966;fill:none;stroke:#fed4e4;stroke-width:6.75980186;stroke-linecap:butt;stroke-linejoin:miter;stroke-miterlimit:4;stroke-opacity:0.92156863;stroke-dasharray:none;display:inline"
       d="m 418.18398,502.91172 3.003,-12.5205 -35.683,-8.5605 3.154,-13.1465 18.155,4.3554 7.509,-31.3013 5.857,-24.4151 28.172,6.7584 3.153,-13.1465"
       id="path11395"
       inkscape:connector-curvature="0" />
    <path
       style="opacity:0.90707966;fill:none;stroke:#d4e9fe;stroke-width:6.75980186;stroke-linecap:butt;stroke-linejoin:miter;stroke-miterlimit:4;stroke-opacity:0.92156863;stroke-dasharray:none;display:inline"
       d="m 357.02198,404.47512 -5.964,29.4763 63.891,7.9371 43.821,10.5131 -12.915,53.8385"
       id="path11397"
       inkscape:connector-curvature="0"
       sodipodi:nodetypes="ccccc" />
    <path
       sodipodi:type="arc"
       style="opacity:0.90707966;fill:#d4e9fe;fill-opacity:0.92156863;stroke:#2d5e99;stroke-width:20;stroke-linecap:round;stroke-linejoin:round;stroke-miterlimit:4;stroke-opacity:1;stroke-dasharray:none;display:inline"
       id="path11399"
       sodipodi:cx="8467.0986"
       sodipodi:cy="-3184.2175"
       sodipodi:rx="115.15739"
       sodipodi:ry="115.15739"
       d="m 8582.256,-3184.2175 a 115.15739,115.15739 0 1 1 -230.3148,0 115.15739,115.15739 0 1 1 230.3148,0 z"
       transform="matrix(-0.10716543,-0.02570952,0.02570952,-0.10716543,1405.412,317.79632)" />
    <path
       style="opacity:0.90707966;fill:none;stroke:#fed4e4;stroke-width:6.75980186;stroke-linecap:butt;stroke-linejoin:miter;stroke-miterlimit:4;stroke-opacity:0.92156863;stroke-dasharray:none;display:inline"
       d="m 43.349978,575.92262 12.858,-0.6859 -1.955,-36.6436 13.501,-0.7201 0.994,18.6432 32.143002,-1.7146 25.073,-1.3374 1.543,28.9295 75.158,-8.3441 15.598,-25.8531"
       id="path11401"
       inkscape:connector-curvature="0"
       sodipodi:nodetypes="cccccccccc" />
    <path
       sodipodi:nodetypes="cccccc"
       style="opacity:0.90707966;fill:none;stroke:#d4e9fe;stroke-width:6.75980186;stroke-linecap:butt;stroke-linejoin:miter;stroke-miterlimit:4;stroke-opacity:0.92156863;stroke-dasharray:none;display:inline"
       d="m 169.27998,410.01502 -52.934,80.1367 -18.849002,1.0053 3.429002,64.2877 2.4,45.0013 -55.287002,2.9493"
       id="path11403"
       inkscape:connector-curvature="0" />
    <path
       sodipodi:type="arc"
       style="opacity:0.90707966;fill:#d4e9fe;fill-opacity:0.92156863;stroke:#2d5e99;stroke-width:20;stroke-linecap:round;stroke-linejoin:round;stroke-miterlimit:4;stroke-opacity:1;stroke-dasharray:none;display:inline"
       id="path11405"
       sodipodi:cx="8467.0986"
       sodipodi:cy="-3184.2175"
       sodipodi:rx="115.15739"
       sodipodi:ry="115.15739"
       d="m 8582.256,-3184.2175 a 115.15739,115.15739 0 1 1 -230.3148,0 115.15739,115.15739 0 1 1 230.3148,0 z"
       transform="matrix(-0.00587033,-0.11004975,0.11004975,-0.00587033,501.91598,1469.569)" />
    <path
       inkscape:connector-curvature="0"
       id="path11407"
       d="m 222.62898,301.50192 1.617,12.774 36.405,-4.6092 1.698,13.4123 -18.522,2.345 4.043,31.9346 3.154,24.9089 -28.742,3.639 -54.955,25.6444"
       style="opacity:0.90707966;fill:none;stroke:#fed4e4;stroke-width:6.75980186;stroke-linecap:butt;stroke-linejoin:miter;stroke-miterlimit:4;stroke-opacity:0.92156863;stroke-dasharray:none;display:inline"
       sodipodi:nodetypes="ccccccccc" />
    <path
       inkscape:connector-curvature="0"
       id="path11409"
       d="m 356.67898,406.68922 -43.208,-38.6099 -2.371,-18.7255 -63.869,8.0856 -44.708,5.6603 -6.954,-54.9277"
       style="opacity:0.90707966;fill:none;stroke:#d4e9fe;stroke-width:6.75980186;stroke-linecap:butt;stroke-linejoin:miter;stroke-miterlimit:4;stroke-opacity:0.92156863;stroke-dasharray:none;display:inline"
       sodipodi:nodetypes="cccccc" />
    <path
       transform="matrix(0.10933351,-0.01384165,0.01384165,0.10933351,-635.38102,823.71512)"
       d="m 8582.256,-3184.2175 a 115.15739,115.15739 0 1 1 -230.3148,0 115.15739,115.15739 0 1 1 230.3148,0 z"
       sodipodi:ry="115.15739"
       sodipodi:rx="115.15739"
       sodipodi:cy="-3184.2175"
       sodipodi:cx="8467.0986"
       id="path11411"
       style="opacity:0.90707966;fill:#d4e9fe;fill-opacity:0.92156863;stroke:#2d5e99;stroke-width:20;stroke-linecap:round;stroke-linejoin:round;stroke-miterlimit:4;stroke-opacity:1;stroke-dasharray:none;display:inline"
       sodipodi:type="arc" />
    <path
       inkscape:connector-curvature="0"
       id="path11413"
       d="m 388.33398,557.35672 9.679,8.4903 24.198,-27.5875 10.163,8.9148 -12.311,14.0362 24.2,21.2257 18.876,16.556 -19.103,21.7796 10.164,8.9148"
       style="opacity:0.90707966;fill:none;stroke:#d4e9fe;stroke-width:6.75980186;stroke-linecap:butt;stroke-linejoin:miter;stroke-miterlimit:4;stroke-opacity:0.92156863;stroke-dasharray:none;display:inline" />
    <path
       sodipodi:nodetypes="cccccc"
       inkscape:connector-curvature="0"
       id="path11415"
       d="m 657.57498,370.47742 -156.439,177.0646 -14.847,-13.0216 -42.451,48.4 -29.716,33.8796 -41.624,-36.5082"
       style="opacity:0.90707966;fill:none;stroke:#fed4e4;stroke-width:6.75980186;stroke-linecap:butt;stroke-linejoin:miter;stroke-miterlimit:4;stroke-opacity:0.92156863;stroke-dasharray:none;display:inline" />
    <path
       transform="matrix(0.07266967,-0.08285243,0.08285243,0.07266967,92.266978,1517.1657)"
       d="m 8582.256,-3184.2175 a 115.15739,115.15739 0 1 1 -230.3148,0 115.15739,115.15739 0 1 1 230.3148,0 z"
       sodipodi:ry="115.15739"
       sodipodi:rx="115.15739"
       sodipodi:cy="-3184.2175"
       sodipodi:cx="8467.0986"
       id="path11417"
       style="opacity:0.90707966;fill:#d4e9fe;fill-opacity:0.92156863;stroke:#2d5e99;stroke-width:20;stroke-linecap:round;stroke-linejoin:round;stroke-miterlimit:4;stroke-opacity:1;stroke-dasharray:none;display:inline"
       sodipodi:type="arc" />
    <path
       style="opacity:0.90707966;fill:none;stroke:#fed4e4;stroke-width:6.75980186;stroke-linecap:butt;stroke-linejoin:miter;stroke-miterlimit:4;stroke-opacity:0.92156863;stroke-dasharray:none;display:inline"
       d="m 653.50998,547.72542 12.591,-2.6982 -7.689,-35.8808 13.219,-2.8322 3.912,18.2548 31.476,-6.7442 24.55,-5.2604 6.07,28.3282 13.219,-2.8322"
       id="path11419"
       inkscape:connector-curvature="0" />
    <path
       sodipodi:nodetypes="cccccc"
       style="opacity:0.90707966;fill:none;stroke:#d4e9fe;stroke-width:6.75980186;stroke-linecap:butt;stroke-linejoin:miter;stroke-miterlimit:4;stroke-opacity:0.92156863;stroke-dasharray:none;display:inline"
       d="m 751.80698,364.09142 -39.686,87.4589 -18.456,3.9541 13.489,62.9503 9.44,44.0656 -54.136,11.5994"
       id="path11421"
       inkscape:connector-curvature="0" />
    <path
       sodipodi:type="arc"
       style="opacity:0.90707966;fill:#d4e9fe;fill-opacity:0.92156863;stroke:#2d5e99;stroke-width:20;stroke-linecap:round;stroke-linejoin:round;stroke-miterlimit:4;stroke-opacity:1;stroke-dasharray:none;display:inline"
       id="path11423"
       sodipodi:cx="8467.0986"
       sodipodi:cy="-3184.2175"
       sodipodi:rx="115.15739"
       sodipodi:ry="115.15739"
       d="m 8582.256,-3184.2175 a 115.15739,115.15739 0 1 1 -230.3148,0 115.15739,115.15739 0 1 1 230.3148,0 z"
       transform="matrix(-0.02308933,-0.10776034,0.10776034,-0.02308933,1246.798,1358.2172)" />
    <path
       inkscape:connector-curvature="0"
       id="path11425"
       d="m 753.47998,366.22932 -7.432,-10.5141 -29.965,21.1816 -7.804,-11.0401 15.246,-10.7768 -18.581,-26.2849 -14.492,-20.5029 23.657,-16.723 -7.804,-11.0394"
       style="opacity:0.90707966;fill:none;stroke:#fed4e4;stroke-width:6.75980186;stroke-linecap:butt;stroke-linejoin:miter;stroke-miterlimit:4;stroke-opacity:0.92156863;stroke-dasharray:none;display:inline" />
    <path
       sodipodi:nodetypes="ccccc"
       inkscape:connector-curvature="0"
       id="path11427"
       d="m 639.14698,347.30142 18.227,23.92 48.097,-42.7986 36.799,-26.0123 31.959,45.2105"
       style="opacity:0.90707966;fill:none;stroke:#d4e9fe;stroke-width:6.75980186;stroke-linecap:butt;stroke-linejoin:miter;stroke-miterlimit:4;stroke-opacity:0.92156863;stroke-dasharray:none;display:inline" />
    <path
       transform="matrix(-0.08999287,0.06361361,-0.06361361,-0.08999287,1265.288,-498.02839)"
       d="m 8582.256,-3184.2175 a 115.15739,115.15739 0 1 1 -230.3148,0 115.15739,115.15739 0 1 1 230.3148,0 z"
       sodipodi:ry="115.15739"
       sodipodi:rx="115.15739"
       sodipodi:cy="-3184.2175"
       sodipodi:cx="8467.0986"
       id="path11429"
       style="opacity:0.90707966;fill:#d4e9fe;fill-opacity:0.92156863;stroke:#2d5e99;stroke-width:20;stroke-linecap:round;stroke-linejoin:round;stroke-miterlimit:4;stroke-opacity:1;stroke-dasharray:none;display:inline"
       sodipodi:type="arc" />
    <path
       sodipodi:nodetypes="cccccccccc"
       inkscape:connector-curvature="0"
       id="path11431"
       d="m 561.20498,696.17032 7.963,-10.1189 -28.837,-22.693 8.361,-10.6243 14.672,11.5458 19.905,-25.2958 15.528,-19.7316 22.766,17.916 43.286,-62.0056 -9.15,-28.7737"
       style="opacity:0.90707966;fill:none;stroke:#fed4e4;stroke-width:6.75980186;stroke-linecap:butt;stroke-linejoin:miter;stroke-miterlimit:4;stroke-opacity:0.92156863;stroke-dasharray:none;display:inline" />
    <path
       inkscape:connector-curvature="0"
       id="path11433"
       d="m 519.51498,492.09782 25.342,92.6378 -11.674,14.8335 50.593,39.8131 35.414,27.8693 -34.239,43.509"
       style="opacity:0.90707966;fill:none;stroke:#d4e9fe;stroke-width:6.75980186;stroke-linecap:butt;stroke-linejoin:miter;stroke-miterlimit:4;stroke-opacity:0.92156863;stroke-dasharray:none;display:inline"
       sodipodi:nodetypes="cccccc" />
    <path
       transform="matrix(-0.08660569,-0.06815323,0.06815323,-0.08660569,1535.422,940.69072)"
       d="m 8582.256,-3184.2175 a 115.15739,115.15739 0 1 1 -230.3148,0 115.15739,115.15739 0 1 1 230.3148,0 z"
       sodipodi:ry="115.15739"
       sodipodi:rx="115.15739"
       sodipodi:cy="-3184.2175"
       sodipodi:cx="8467.0986"
       id="path11435"
       style="opacity:0.90707966;fill:#d4e9fe;fill-opacity:0.92156863;stroke:#2d5e99;stroke-width:20;stroke-linecap:round;stroke-linejoin:round;stroke-miterlimit:4;stroke-opacity:1;stroke-dasharray:none;display:inline"
       sodipodi:type="arc" />
    <path
       sodipodi:nodetypes="ccccccccc"
       style="opacity:0.90707966;fill:none;stroke:#fed4e4;stroke-width:6.75980186;stroke-linecap:butt;stroke-linejoin:miter;stroke-miterlimit:4;stroke-opacity:0.92156863;stroke-dasharray:none;display:inline"
       d="m 473.11398,380.43702 10.669,7.2078 20.54,-30.4085 11.203,7.5673 -10.45,15.4713 26.674,18.0179 20.807,14.0536 -16.218,24.0079 -16.957,58.2246"
       id="path11437"
       inkscape:connector-curvature="0" />
    <path
       sodipodi:nodetypes="cccccc"
       style="opacity:0.90707966;fill:none;stroke:#d4e9fe;stroke-width:6.75980186;stroke-linecap:butt;stroke-linejoin:miter;stroke-miterlimit:4;stroke-opacity:0.92156863;stroke-dasharray:none;display:inline"
       d="m 640.58498,349.01912 -57.518,7.0243 -15.641,-10.5648 -36.036,53.3477 -25.226,37.3439 -45.879,-30.991"
       id="path11439"
       inkscape:connector-curvature="0" />
    <path
       sodipodi:type="arc"
       style="opacity:0.90707966;fill:#d4e9fe;fill-opacity:0.92156863;stroke:#2d5e99;stroke-width:20;stroke-linecap:round;stroke-linejoin:round;stroke-miterlimit:4;stroke-opacity:1;stroke-dasharray:none;display:inline"
       id="path11441"
       sodipodi:cx="8467.0986"
       sodipodi:cy="-3184.2175"
       sodipodi:rx="115.15739"
       sodipodi:ry="115.15739"
       d="m 8582.256,-3184.2175 a 115.15739,115.15739 0 1 1 -230.3148,0 115.15739,115.15739 0 1 1 230.3148,0 z"
       transform="matrix(0.06168815,-0.09132349,0.09132349,0.06168815,299.94098,1369.8304)" />
    <path
       style="opacity:0.90707966;fill:none;stroke:#d4e9fe;stroke-width:6.75980186;stroke-linecap:butt;stroke-linejoin:miter;stroke-miterlimit:4;stroke-opacity:0.92156863;stroke-dasharray:none;display:inline"
       d="m 674.24098,610.50612 9.679,8.4903 24.198,-27.5875 10.164,8.9148 -12.311,14.0362 24.199,21.2257 18.876,16.556 -19.103,21.7796 10.164,8.9148"
       id="path11443"
       inkscape:connector-curvature="0" />
    <path
       style="opacity:0.90707966;fill:none;stroke:#fed4e4;stroke-width:6.75980186;stroke-linecap:butt;stroke-linejoin:miter;stroke-miterlimit:4;stroke-opacity:0.92156863;stroke-dasharray:none;display:inline"
       d="m 943.48198,423.62682 -156.438,177.0646 -14.847,-13.0216 -42.451,48.4 -29.716,33.8796 -41.624,-36.5082"
       id="path11445"
       inkscape:connector-curvature="0"
       sodipodi:nodetypes="cccccc" />
    <path
       sodipodi:type="arc"
       style="opacity:0.90707966;fill:#d4e9fe;fill-opacity:0.92156863;stroke:#2d5e99;stroke-width:20;stroke-linecap:round;stroke-linejoin:round;stroke-miterlimit:4;stroke-opacity:1;stroke-dasharray:none;display:inline"
       id="path11447"
       sodipodi:cx="8467.0986"
       sodipodi:cy="-3184.2175"
       sodipodi:rx="115.15739"
       sodipodi:ry="115.15739"
       d="m 8582.256,-3184.2175 a 115.15739,115.15739 0 1 1 -230.3148,0 115.15739,115.15739 0 1 1 230.3148,0 z"
       transform="matrix(0.07266967,-0.08285243,0.08285243,0.07266967,378.17398,1570.3151)" />
    <path
       inkscape:connector-curvature="0"
       id="path11449"
       d="m 939.41698,600.87482 12.592,-2.6982 -7.69,-35.8808 13.22,-2.8322 3.911,18.2548 31.476,-6.7442 24.55002,-5.2604 6.07,28.3282 13.219,-2.8322"
       style="opacity:0.90707966;fill:none;stroke:#fed4e4;stroke-width:6.75980186;stroke-linecap:butt;stroke-linejoin:miter;stroke-miterlimit:4;stroke-opacity:0.92156863;stroke-dasharray:none;display:inline" />
    <path
       inkscape:connector-curvature="0"
       id="path11451"
       d="m 1037.714,417.24082 -39.68502,87.4589 -18.456,3.9541 13.488,62.9503 9.44102,44.0656 -54.13702,11.5994"
       style="opacity:0.90707966;fill:none;stroke:#d4e9fe;stroke-width:6.75980186;stroke-linecap:butt;stroke-linejoin:miter;stroke-miterlimit:4;stroke-opacity:0.92156863;stroke-dasharray:none;display:inline"
       sodipodi:nodetypes="cccccc" />
    <path
       transform="matrix(-0.02308933,-0.10776034,0.10776034,-0.02308933,1532.706,1411.3666)"
       d="m 8582.256,-3184.2175 a 115.15739,115.15739 0 1 1 -230.3148,0 115.15739,115.15739 0 1 1 230.3148,0 z"
       sodipodi:ry="115.15739"
       sodipodi:rx="115.15739"
       sodipodi:cy="-3184.2175"
       sodipodi:cx="8467.0986"
       id="path11453"
       style="opacity:0.90707966;fill:#d4e9fe;fill-opacity:0.92156863;stroke:#2d5e99;stroke-width:20;stroke-linecap:round;stroke-linejoin:round;stroke-miterlimit:4;stroke-opacity:1;stroke-dasharray:none;display:inline"
       sodipodi:type="arc" />
    <path
       style="opacity:0.90707966;fill:none;stroke:#fed4e4;stroke-width:6.75980186;stroke-linecap:butt;stroke-linejoin:miter;stroke-miterlimit:4;stroke-opacity:0.92156863;stroke-dasharray:none;display:inline"
       d="m 1039.388,419.37872 -7.432,-10.5141 -29.966,21.1816 -7.80302,-11.0401 15.24602,-10.7768 -18.58202,-26.2849 -14.492,-20.5029 23.65702,-16.723 -7.80402,-11.0394"
       id="path11455"
       inkscape:connector-curvature="0" />
    <path
       style="opacity:0.90707966;fill:none;stroke:#d4e9fe;stroke-width:6.75980186;stroke-linecap:butt;stroke-linejoin:miter;stroke-miterlimit:4;stroke-opacity:0.92156863;stroke-dasharray:none;display:inline"
       d="m 925.05398,400.45082 18.228,23.92 48.096,-42.7986 36.79902,-26.0123 31.959,45.2105"
       id="path11457"
       inkscape:connector-curvature="0"
       sodipodi:nodetypes="ccccc" />
    <path
       sodipodi:type="arc"
       style="opacity:0.90707966;fill:#d4e9fe;fill-opacity:0.92156863;stroke:#2d5e99;stroke-width:20;stroke-linecap:round;stroke-linejoin:round;stroke-miterlimit:4;stroke-opacity:1;stroke-dasharray:none;display:inline"
       id="path11459"
       sodipodi:cx="8467.0986"
       sodipodi:cy="-3184.2175"
       sodipodi:rx="115.15739"
       sodipodi:ry="115.15739"
       d="m 8582.256,-3184.2175 a 115.15739,115.15739 0 1 1 -230.3148,0 115.15739,115.15739 0 1 1 230.3148,0 z"
       transform="matrix(-0.08999287,0.06361361,-0.06361361,-0.08999287,1551.195,-444.87909)" />
    <path
       style="opacity:0.90707966;fill:none;stroke:#fed4e4;stroke-width:6.75980186;stroke-linecap:butt;stroke-linejoin:miter;stroke-miterlimit:4;stroke-opacity:0.92156863;stroke-dasharray:none;display:inline"
       d="m 847.11298,749.31972 7.963,-10.1189 -28.838,-22.693 8.362,-10.6243 14.671,11.5458 19.906,-25.2958 15.528,-19.7316 22.766,17.916 43.286,-62.0056 -9.151,-28.7737"
       id="path11461"
       inkscape:connector-curvature="0"
       sodipodi:nodetypes="cccccccccc" />
    <path
       sodipodi:nodetypes="cccccc"
       style="opacity:0.90707966;fill:none;stroke:#d4e9fe;stroke-width:6.75980186;stroke-linecap:butt;stroke-linejoin:miter;stroke-miterlimit:4;stroke-opacity:0.92156863;stroke-dasharray:none;display:inline"
       d="m 805.42298,545.24722 25.341,92.6378 -11.673,14.8335 50.592,39.8131 35.415,27.8693 -34.239,43.509"
       id="path11463"
       inkscape:connector-curvature="0" />
    <path
       sodipodi:type="arc"
       style="opacity:0.90707966;fill:#d4e9fe;fill-opacity:0.92156863;stroke:#2d5e99;stroke-width:20;stroke-linecap:round;stroke-linejoin:round;stroke-miterlimit:4;stroke-opacity:1;stroke-dasharray:none;display:inline"
       id="path11465"
       sodipodi:cx="8467.0986"
       sodipodi:cy="-3184.2175"
       sodipodi:rx="115.15739"
       sodipodi:ry="115.15739"
       d="m 8582.256,-3184.2175 a 115.15739,115.15739 0 1 1 -230.3148,0 115.15739,115.15739 0 1 1 230.3148,0 z"
       transform="matrix(-0.08660569,-0.06815323,0.06815323,-0.08660569,1821.329,993.84012)" />
    <path
       inkscape:connector-curvature="0"
       id="path11467"
       d="m 759.02098,433.58642 10.669,7.2078 20.54,-30.4085 11.204,7.5673 -10.451,15.4713 26.674,18.0179 20.807,14.0536 -16.217,24.0079 -16.958,58.2246"
       style="opacity:0.90707966;fill:none;stroke:#fed4e4;stroke-width:6.75980186;stroke-linecap:butt;stroke-linejoin:miter;stroke-miterlimit:4;stroke-opacity:0.92156863;stroke-dasharray:none;display:inline"
       sodipodi:nodetypes="ccccccccc" />
    <path
       inkscape:connector-curvature="0"
       id="path11469"
       d="m 926.49298,402.16852 -57.518,7.0243 -15.642,-10.5648 -36.036,53.3477 -25.225,37.3439 -45.88,-30.991"
       style="opacity:0.90707966;fill:none;stroke:#d4e9fe;stroke-width:6.75980186;stroke-linecap:butt;stroke-linejoin:miter;stroke-miterlimit:4;stroke-opacity:0.92156863;stroke-dasharray:none;display:inline"
       sodipodi:nodetypes="cccccc" />
    <path
       transform="matrix(0.06168815,-0.09132349,0.09132349,0.06168815,585.84798,1422.9798)"
       d="m 8582.256,-3184.2175 a 115.15739,115.15739 0 1 1 -230.3148,0 115.15739,115.15739 0 1 1 230.3148,0 z"
       sodipodi:ry="115.15739"
       sodipodi:rx="115.15739"
       sodipodi:cy="-3184.2175"
       sodipodi:cx="8467.0986"
       id="path11471"
       style="opacity:0.90707966;fill:#d4e9fe;fill-opacity:0.92156863;stroke:#2d5e99;stroke-width:20;stroke-linecap:round;stroke-linejoin:round;stroke-miterlimit:4;stroke-opacity:1;stroke-dasharray:none;display:inline"
       sodipodi:type="arc" />
    <path
       inkscape:connector-curvature="0"
       id="path11473"
       d="m 448.92798,722.96852 -0.463,12.8671 36.671,1.3196 -0.486,13.5107 -18.657,-0.6711 -1.158,32.1683 -0.902,25.0918 -28.952,-1.0415 -0.486,13.5107"
       style="opacity:0.90707966;fill:none;stroke:#d4e9fe;stroke-width:6.75980186;stroke-linecap:butt;stroke-linejoin:miter;stroke-miterlimit:4;stroke-opacity:0.92156863;stroke-dasharray:none;display:inline" />
    <path
       sodipodi:nodetypes="cccccc"
       inkscape:connector-curvature="0"
       id="path11475"
       d="m 763.90698,813.53602 -236.088,-9.3465 0.711,-19.7352 -64.339,-2.3142 -45.036,-1.6201 1.99,-55.3303"
       style="opacity:0.90707966;fill:none;stroke:#fed4e4;stroke-width:6.75980186;stroke-linecap:butt;stroke-linejoin:miter;stroke-miterlimit:4;stroke-opacity:0.92156863;stroke-dasharray:none;display:inline" />
    <path
       transform="matrix(0.11013498,0.00396163,-0.00396163,0.11013498,-482.03402,1100.0606)"
       d="m 8582.256,-3184.2175 a 115.15739,115.15739 0 1 1 -230.3148,0 115.15739,115.15739 0 1 1 230.3148,0 z"
       sodipodi:ry="115.15739"
       sodipodi:rx="115.15739"
       sodipodi:cy="-3184.2175"
       sodipodi:cx="8467.0986"
       id="path11477"
       style="opacity:0.90707966;fill:#d4e9fe;fill-opacity:0.92156863;stroke:#2d5e99;stroke-width:20;stroke-linecap:round;stroke-linejoin:round;stroke-miterlimit:4;stroke-opacity:1;stroke-dasharray:none;display:inline"
       sodipodi:type="arc" />
    <path
       style="opacity:0.90707966;fill:none;stroke:#fed4e4;stroke-width:6.75980186;stroke-linecap:butt;stroke-linejoin:miter;stroke-miterlimit:4;stroke-opacity:0.92156863;stroke-dasharray:none;display:inline"
       d="m 623.96898,922.39682 10.049,8.0534 22.949,-28.6339 10.548,8.4552 -11.676,14.5677 25.119,20.132 19.591,15.7026 -18.119,22.6061 10.548,8.4552"
       id="path11479"
       inkscape:connector-curvature="0" />
    <path
       sodipodi:nodetypes="cccccc"
       style="opacity:0.90707966;fill:none;stroke:#d4e9fe;stroke-width:6.75980186;stroke-linecap:butt;stroke-linejoin:miter;stroke-miterlimit:4;stroke-opacity:0.92156863;stroke-dasharray:none;display:inline"
       d="m 828.40598,882.53142 -92.861,24.5126 -14.728,-11.805 -40.262,50.235 -28.186,35.1638 -43.201,-34.6262"
       id="path11481"
       inkscape:connector-curvature="0" />
    <path
       sodipodi:type="arc"
       style="opacity:0.90707966;fill:#d4e9fe;fill-opacity:0.92156863;stroke:#2d5e99;stroke-width:20;stroke-linecap:round;stroke-linejoin:round;stroke-miterlimit:4;stroke-opacity:1;stroke-dasharray:none;display:inline"
       id="path11483"
       sodipodi:cx="8467.0986"
       sodipodi:cy="-3184.2175"
       sodipodi:rx="115.15739"
       sodipodi:ry="115.15739"
       d="m 8582.256,-3184.2175 a 115.15739,115.15739 0 1 1 -230.3148,0 115.15739,115.15739 0 1 1 230.3148,0 z"
       transform="matrix(0.06892439,-0.08599324,0.08599324,0.06892439,370.75498,1894.3897)" />
    <path
       inkscape:connector-curvature="0"
       id="path11485"
       d="m 827.80698,885.17962 3.451,-12.4045 -35.352,-9.8378 3.625,-13.0244 17.987,5.0052 8.629,-31.0114 6.732,-24.1881 27.91,7.7664 3.623,-13.0248"
       style="opacity:0.90707966;fill:none;stroke:#fed4e4;stroke-width:6.75980186;stroke-linecap:butt;stroke-linejoin:miter;stroke-miterlimit:4;stroke-opacity:0.92156863;stroke-dasharray:none;display:inline" />
    <path
       sodipodi:nodetypes="ccccc"
       inkscape:connector-curvature="0"
       id="path11487"
       d="m 770.22398,784.60812 -7.02,29.2428 63.564,10.229 43.415,12.0813 -14.842,53.3394"
       style="opacity:0.90707966;fill:none;stroke:#d4e9fe;stroke-width:6.75980186;stroke-linecap:butt;stroke-linejoin:miter;stroke-miterlimit:4;stroke-opacity:0.92156863;stroke-dasharray:none;display:inline" />
    <path
       transform="matrix(-0.10617197,-0.02954522,0.02954522,-0.10617197,1821.052,735.67242)"
       d="m 8582.256,-3184.2175 a 115.15739,115.15739 0 1 1 -230.3148,0 115.15739,115.15739 0 1 1 230.3148,0 z"
       sodipodi:ry="115.15739"
       sodipodi:rx="115.15739"
       sodipodi:cy="-3184.2175"
       sodipodi:cx="8467.0986"
       id="path11489"
       style="opacity:0.90707966;fill:#d4e9fe;fill-opacity:0.92156863;stroke:#2d5e99;stroke-width:20;stroke-linecap:round;stroke-linejoin:round;stroke-miterlimit:4;stroke-opacity:1;stroke-dasharray:none;display:inline"
       sodipodi:type="arc" />
    <path
       sodipodi:nodetypes="cccccccccc"
       inkscape:connector-curvature="0"
       id="path11491"
       d="m 450.59098,944.66902 12.874,-0.2231 -0.636,-36.6903 13.518,-0.2339 0.324,18.6669 32.183,-0.5584 25.106,-0.435 0.501,28.9659 75.41,-5.637 16.517,-25.2752"
       style="opacity:0.90707966;fill:none;stroke:#fed4e4;stroke-width:6.75980186;stroke-linecap:butt;stroke-linejoin:miter;stroke-miterlimit:4;stroke-opacity:0.92156863;stroke-dasharray:none;display:inline" />
    <path
       inkscape:connector-curvature="0"
       id="path11493"
       d="m 582.40398,783.39572 -55.781,78.1821 -18.873,0.3269 1.116,64.3694 0.781,45.0586 -55.358,0.9598"
       style="opacity:0.90707966;fill:none;stroke:#d4e9fe;stroke-width:6.75980186;stroke-linecap:butt;stroke-linejoin:miter;stroke-miterlimit:4;stroke-opacity:0.92156863;stroke-dasharray:none;display:inline"
       sodipodi:nodetypes="cccccc" />
    <path
       transform="matrix(-0.00191053,-0.11018964,0.11018964,-0.00191053,876.73698,1854.2224)"
       d="m 8582.256,-3184.2175 a 115.15739,115.15739 0 1 1 -230.3148,0 115.15739,115.15739 0 1 1 230.3148,0 z"
       sodipodi:ry="115.15739"
       sodipodi:rx="115.15739"
       sodipodi:cy="-3184.2175"
       sodipodi:cx="8467.0986"
       id="path11495"
       style="opacity:0.90707966;fill:#d4e9fe;fill-opacity:0.92156863;stroke:#2d5e99;stroke-width:20;stroke-linecap:round;stroke-linejoin:round;stroke-miterlimit:4;stroke-opacity:1;stroke-dasharray:none;display:inline"
       sodipodi:type="arc" />
    <path
       sodipodi:nodetypes="ccccccccc"
       style="opacity:0.90707966;fill:none;stroke:#fed4e4;stroke-width:6.75980186;stroke-linecap:butt;stroke-linejoin:miter;stroke-miterlimit:4;stroke-opacity:0.92156863;stroke-dasharray:none;display:inline"
       d="m 639.61898,676.87062 1.157,12.8236 36.547,-3.2979 1.215,13.465 -18.595,1.6778 2.892,32.0591 2.257,25.0065 -28.855,2.6031 -55.84,23.6525"
       id="path11497"
       inkscape:connector-curvature="0" />
    <path
       sodipodi:nodetypes="cccccc"
       style="opacity:0.90707966;fill:none;stroke:#d4e9fe;stroke-width:6.75980186;stroke-linecap:butt;stroke-linejoin:miter;stroke-miterlimit:4;stroke-opacity:0.92156863;stroke-dasharray:none;display:inline"
       d="m 769.80198,786.80872 -41.793,-40.1385 -1.696,-18.7986 -64.118,5.7846 -44.884,4.0493 -4.974,-55.1418"
       id="path11499"
       inkscape:connector-curvature="0" />
    <path
       sodipodi:type="arc"
       style="opacity:0.90707966;fill:#d4e9fe;fill-opacity:0.92156863;stroke:#2d5e99;stroke-width:20;stroke-linecap:round;stroke-linejoin:round;stroke-miterlimit:4;stroke-opacity:1;stroke-dasharray:none;display:inline"
       id="path11501"
       sodipodi:cx="8467.0986"
       sodipodi:cy="-3184.2175"
       sodipodi:rx="115.15739"
       sodipodi:ry="115.15739"
       d="m 8582.256,-3184.2175 a 115.15739,115.15739 0 1 1 -230.3148,0 115.15739,115.15739 0 1 1 230.3148,0 z"
       transform="matrix(0.10976042,-0.00990244,0.00990244,0.10976042,-236.60802,1167.9026)" />
    <path
       style="opacity:0.90707966;fill:none;stroke:#d4e9fe;stroke-width:6.75980186;stroke-linecap:butt;stroke-linejoin:miter;stroke-miterlimit:4;stroke-opacity:0.92156863;stroke-dasharray:none;display:inline"
       d="m 301.96498,1009.0594 9.393,-8.8058 -25.098,-26.77018 9.863,-9.2467 12.769,13.6196 23.483,-22.0162 18.316,-17.1731 19.815,21.1338 9.863,-9.2468"
       id="path11503"
       inkscape:connector-curvature="0" />
    <path
       style="opacity:0.90707966;fill:none;stroke:#fed4e4;stroke-width:6.75980186;stroke-linecap:butt;stroke-linejoin:miter;stroke-miterlimit:4;stroke-opacity:0.92156863;stroke-dasharray:none;display:inline"
       d="m 346.04508,859.40912 -57.2641,49.9354 44.034,46.9657 30.824,32.8754 -40.39,37.86888"
       id="path11505"
       inkscape:connector-curvature="0"
       sodipodi:nodetypes="ccccc" />
    <path
       sodipodi:type="arc"
       style="opacity:0.90707966;fill:#d4e9fe;fill-opacity:0.92156863;stroke:#2d5e99;stroke-width:20;stroke-linecap:round;stroke-linejoin:round;stroke-miterlimit:4;stroke-opacity:1;stroke-dasharray:none;display:inline"
       id="path11507"
       sodipodi:cx="8467.0986"
       sodipodi:cy="-3184.2175"
       sodipodi:rx="115.15739"
       sodipodi:ry="115.15739"
       d="m 8582.256,-3184.2175 a 115.15739,115.15739 0 1 1 -230.3148,0 115.15739,115.15739 0 1 1 230.3148,0 z"
       transform="matrix(-0.07537796,-0.08039634,0.08039634,-0.07537796,1228.362,1397.2329)" />
    <path
       inkscape:connector-curvature="0"
       id="path11509"
       d="m 318.21698,744.20692 -1.459,-12.7946 -36.46,4.1564 -1.53,-13.432 18.548,-2.1143 -3.644,-31.9834 -2.844,-24.9458 28.785,-3.281 -1.531,-13.432"
       style="opacity:0.90707966;fill:none;stroke:#fed4e4;stroke-width:6.75980186;stroke-linecap:butt;stroke-linejoin:miter;stroke-miterlimit:4;stroke-opacity:0.92156863;stroke-dasharray:none;display:inline" />
    <path
       inkscape:connector-curvature="0"
       id="path11511"
       d="m 145.03398,628.48572 83.176,48.0182 2.136,18.7536 63.965,-7.2916 44.776,-5.1024 6.27,55.0095"
       style="opacity:0.90707966;fill:none;stroke:#d4e9fe;stroke-width:6.75980186;stroke-linecap:butt;stroke-linejoin:miter;stroke-miterlimit:4;stroke-opacity:0.92156863;stroke-dasharray:none;display:inline"
       sodipodi:nodetypes="cccccc" />
    <path
       transform="matrix(-0.10949726,0.01248027,-0.01248027,-0.10949726,1182.656,232.70812)"
       d="m 8582.256,-3184.2175 a 115.15739,115.15739 0 1 1 -230.3148,0 115.15739,115.15739 0 1 1 230.3148,0 z"
       sodipodi:ry="115.15739"
       sodipodi:rx="115.15739"
       sodipodi:cy="-3184.2175"
       sodipodi:cx="8467.0986"
       id="path11513"
       style="opacity:0.90707966;fill:#d4e9fe;fill-opacity:0.92156863;stroke:#2d5e99;stroke-width:20;stroke-linecap:round;stroke-linejoin:round;stroke-miterlimit:4;stroke-opacity:1;stroke-dasharray:none;display:inline"
       sodipodi:type="arc" />
    <path
       style="opacity:0.90707966;fill:none;stroke:#fed4e4;stroke-width:6.75980186;stroke-linecap:butt;stroke-linejoin:miter;stroke-miterlimit:4;stroke-opacity:0.92156863;stroke-dasharray:none;display:inline"
       d="m 147.32398,627.02852 -11.188,6.3726 18.161,31.8862 -11.748,6.6905 -9.24,-16.2229 -27.97,15.9318 -21.817002,12.4253 -14.339,-25.1738 -11.747,6.6919"
       id="path11515"
       inkscape:connector-curvature="0" />
    <path
       style="opacity:0.90707966;fill:none;stroke:#d4e9fe;stroke-width:6.75980186;stroke-linecap:butt;stroke-linejoin:miter;stroke-miterlimit:4;stroke-opacity:0.92156863;stroke-dasharray:none;display:inline"
       d="m 117.34598,738.97382 25.583,-15.8102 -37.909,-52.0376 -22.304002,-39.1583 48.110002,-27.4023"
       id="path11517"
       inkscape:connector-curvature="0"
       sodipodi:nodetypes="ccccc" />
    <path
       sodipodi:type="arc"
       style="opacity:0.90707966;fill:#d4e9fe;fill-opacity:0.92156863;stroke:#2d5e99;stroke-width:20;stroke-linecap:round;stroke-linejoin:round;stroke-miterlimit:4;stroke-opacity:1;stroke-dasharray:none;display:inline"
       id="path11519"
       sodipodi:cx="8467.0986"
       sodipodi:cy="-3184.2175"
       sodipodi:rx="115.15739"
       sodipodi:ry="115.15739"
       d="m 8582.256,-3184.2175 a 115.15739,115.15739 0 1 1 -230.3148,0 115.15739,115.15739 0 1 1 230.3148,0 z"
       transform="matrix(0.05454284,0.09576266,-0.09576266,0.05454284,-662.95602,33.450315)" />
    <path
       style="opacity:0.90707966;fill:none;stroke:#fed4e4;stroke-width:6.75980186;stroke-linecap:butt;stroke-linejoin:miter;stroke-miterlimit:4;stroke-opacity:0.92156863;stroke-dasharray:none;display:inline"
       d="m 456.96198,850.53532 -9.295,-8.911 -25.395,26.4891 -9.759,-9.3565 12.92,-13.477 -23.235,-22.2753 -18.125,-17.3768 20.048,-20.9121 -57.493,-49.1212 -29.528,6.3033"
       id="path11521"
       inkscape:connector-curvature="0"
       sodipodi:nodetypes="cccccccccc" />
    <path
       sodipodi:nodetypes="cccccc"
       style="opacity:0.90707966;fill:none;stroke:#d4e9fe;stroke-width:6.75980186;stroke-linecap:butt;stroke-linejoin:miter;stroke-miterlimit:4;stroke-opacity:0.92156863;stroke-dasharray:none;display:inline"
       d="m 249.79898,872.14402 94.665,-16.1949 13.626,13.0627 44.553,-46.4725 31.186,-32.5307 39.967,38.3154"
       id="path11523"
       inkscape:connector-curvature="0" />
    <path
       sodipodi:type="arc"
       style="opacity:0.90707966;fill:#d4e9fe;fill-opacity:0.92156863;stroke:#2d5e99;stroke-width:20;stroke-linecap:round;stroke-linejoin:round;stroke-miterlimit:4;stroke-opacity:1;stroke-dasharray:none;display:inline"
       id="path11525"
       sodipodi:cx="8467.0986"
       sodipodi:cy="-3184.2175"
       sodipodi:rx="115.15739"
       sodipodi:ry="115.15739"
       d="m 8582.256,-3184.2175 a 115.15739,115.15739 0 1 1 -230.3148,0 115.15739,115.15739 0 1 1 230.3148,0 z"
       transform="matrix(-0.07626706,0.0795534,-0.0795534,-0.07626706,795.23798,-95.222185)" />
    <path
       inkscape:connector-curvature="0"
       id="path11527"
       d="m 134.14798,907.44532 8.212,-9.9164 -28.262,-23.4047 8.623,-10.4131 14.379,11.9084 20.532,-24.7914 16.013,-19.3383 22.315,18.4792 56.294,22.5491"
       style="opacity:0.90707966;fill:none;stroke:#fed4e4;stroke-width:6.75980186;stroke-linecap:butt;stroke-linejoin:miter;stroke-miterlimit:4;stroke-opacity:0.92156863;stroke-dasharray:none;display:inline"
       sodipodi:nodetypes="ccccccccc" />
    <path
       inkscape:connector-curvature="0"
       id="path11529"
       d="m 119.19598,737.70912 c -0.2514,0.4199 -10.652,72.4667 -10.652,72.4667 l 49.583,41.0624 34.709,28.7441 -35.314,42.6416"
       style="opacity:0.90707966;fill:none;stroke:#d4e9fe;stroke-width:6.75980186;stroke-linecap:butt;stroke-linejoin:miter;stroke-miterlimit:4;stroke-opacity:0.92156863;stroke-dasharray:none;display:inline"
       sodipodi:nodetypes="ccccc" />
    <path
       transform="matrix(-0.08487866,-0.07029241,0.07029241,-0.08487866,1101.961,1176.1917)"
       d="m 8582.256,-3184.2175 a 115.15739,115.15739 0 1 1 -230.3148,0 115.15739,115.15739 0 1 1 230.3148,0 z"
       sodipodi:ry="115.15739"
       sodipodi:rx="115.15739"
       sodipodi:cy="-3184.2175"
       sodipodi:cx="8467.0986"
       id="path11531"
       style="opacity:0.90707966;fill:#d4e9fe;fill-opacity:0.92156863;stroke:#2d5e99;stroke-width:20;stroke-linecap:round;stroke-linejoin:round;stroke-miterlimit:4;stroke-opacity:1;stroke-dasharray:none;display:inline"
       sodipodi:type="arc" />
    <path
       sodipodi:nodetypes="cccccc"
       inkscape:connector-curvature="0"
       id="path11533"
       d="m 223.47468,813.37542 -25.098,-26.7702 9.863,-9.2467 12.769,13.6196 23.483,-22.0162 37.0038,-34.8508"
       style="opacity:0.90707966;fill:none;stroke:#d4e9fe;stroke-width:6.75980186;stroke-linecap:butt;stroke-linejoin:miter;stroke-miterlimit:4;stroke-opacity:0.92156863;stroke-dasharray:none;display:inline" />
    <path
       transform="matrix(-0.07537796,-0.08039634,0.08039634,-0.07537796,1131.3874,1216.4156)"
       d="m 8582.256,-3184.2175 a 115.15739,115.15739 0 1 1 -230.3148,0 115.15739,115.15739 0 1 1 230.3148,0 z"
       sodipodi:ry="115.15739"
       sodipodi:rx="115.15739"
       sodipodi:cy="-3184.2175"
       sodipodi:cx="8467.0986"
       id="path11535"
       style="opacity:0.90707966;fill:#d4e9fe;fill-opacity:0.92156863;stroke:#2d5e99;stroke-width:20;stroke-linecap:round;stroke-linejoin:round;stroke-miterlimit:4;stroke-opacity:1;stroke-dasharray:none;display:inline"
       sodipodi:type="arc" />
  </g>
  <g
     inkscape:groupmode="layer"
     id="layer2"
     inkscape:label="Layer2"
     style="display:inline">
    <path
       sodipodi:nodetypes="ccccccccc"
       inkscape:connector-curvature="0"
       id="path11539"
       d="m 557.52298,142.10581 21.9504,15.0487 42.8845,-62.552795 23.0445,15.799895 -21.8179,31.8247 54.8724,37.621 42.7985,29.34253 -33.8582,49.3852 28.1095,18.59088"
       style="opacity:0.55309735;fill:none;stroke:#fed4e4;stroke-width:13.97103024;stroke-linecap:butt;stroke-linejoin:miter;stroke-miterlimit:4;stroke-opacity:0.92156863;stroke-dasharray:none;display:inline;filter:url(#filter11780)" />
    <path
       style="opacity:0.55309735;fill:none;stroke:#fed4e4;stroke-width:13.97103024;stroke-linecap:butt;stroke-linejoin:miter;stroke-miterlimit:4;stroke-opacity:0.92156863;stroke-dasharray:none;display:inline;filter:url(#filter11776)"
       d="m 136.81078,294.07122 26.5001,-2.4447 -6.9668,-75.52038 27.824,-2.5663 3.5451,38.4237 66.2447,-6.1134 51.6752,-4.7665 5.4996,59.62198 154.5516,-23.2431 54.1281,-72.83088"
       id="path11541"
       inkscape:connector-curvature="0"
       sodipodi:nodetypes="cccccccccc" />
    <path
       sodipodi:nodetypes="cccccccccccccc"
       inkscape:connector-curvature="0"
       id="path11543"
       d="m 690.63148,594.40932 -1.0813,-27.9212 59.8305,-2.3165 -2.0082,-51.8536 -2.5728,-66.4775 38.5582,-1.4933 -1.0811,-27.9212 -75.7864,2.933 -1.0283,-26.5901 73.3057,-4.3025 -2.9236,-39.1771 -77.1846,3.5084 -0.5848,-38.0075 26.9636,-39.6199"
       style="opacity:0.55309735;fill:none;stroke:#d4e9fe;stroke-width:13.97103024;stroke-linecap:butt;stroke-linejoin:miter;stroke-miterlimit:4;stroke-opacity:0.92156863;stroke-dasharray:none;display:inline;filter:url(#filter11772)" />
    <path
       sodipodi:nodetypes="cccccc"
       inkscape:connector-curvature="0"
       id="path11545"
       d="m 1000.9089,549.05617 -120.32772,-1.05005 -1.5801,-40.7848 -132.9575,5.1493 -93.0701,3.6034 -2.6737,-102.0645"
       style="opacity:0.55309735;fill:none;stroke:#fed4e4;stroke-width:13.97103024;stroke-linecap:butt;stroke-linejoin:miter;stroke-miterlimit:4;stroke-opacity:0.92156863;stroke-dasharray:none;display:inline;filter:url(#filter11768)" />
    <path
       transform="matrix(0.22760152,-0.00881334,0.00881334,0.22760152,-1155.1407,1313.4809)"
       d="m 8582.256,-3184.2175 a 115.15739,115.15739 0 1 1 -230.3148,0 115.15739,115.15739 0 1 1 230.3148,0 z"
       sodipodi:ry="115.15739"
       sodipodi:rx="115.15739"
       sodipodi:cy="-3184.2175"
       sodipodi:cx="8467.0986"
       id="path11547"
       style="opacity:0.55309735;fill:#d4e9fe;fill-opacity:0.92156863;stroke:#2d5e99;stroke-width:20;stroke-linecap:round;stroke-linejoin:round;stroke-miterlimit:4;stroke-opacity:1;stroke-dasharray:none;display:inline;filter:url(#filter11764)"
       sodipodi:type="arc" />
    <path
       inkscape:connector-curvature="0"
       id="path11549"
       d="m 155.48258,352.78872 28.0488,204.7592 44.934,39.5781 34.2981,-38.9428 43.9729,-49.9235 28.9576,25.5048 18.4681,-20.9686 -56.899,-52.419 29.7551,-34.9205 56.4708,48.3809 31.5755,-8.771 0.5849,-60.8122 60.2273,-8.7709 11.6947,59.6426 49.7021,-2.3389 8.771,-65.49 43.8549,-0.5847 9.9404,35.0839 49.7023,-0.5847"
       style="opacity:0.55309735;fill:none;stroke:#fed4e4;stroke-width:13.97103024;stroke-linecap:butt;stroke-linejoin:miter;stroke-miterlimit:4;stroke-opacity:0.92156863;stroke-dasharray:none;display:inline;filter:url(#filter11760)"
       sodipodi:nodetypes="ccccccccc" />
    <path
       sodipodi:nodetypes="ccccc"
       style="opacity:0.55309735;fill:none;stroke:#d4e9fe;stroke-width:13.97103024;stroke-linecap:butt;stroke-linejoin:miter;stroke-miterlimit:4;stroke-opacity:0.92156863;stroke-dasharray:none;display:inline;filter:url(#filter11756)"
       d="m 284.39988,113.77991 -38.8485,3.5823 12.2242,132.49593 8.5553,92.74558 -113.9446,10.5118"
       id="path11551"
       inkscape:connector-curvature="0" />
    <path
       sodipodi:type="arc"
       style="opacity:0.55309735;fill:#d4e9fe;fill-opacity:0.92156863;stroke:#2d5e99;stroke-width:20;stroke-linecap:round;stroke-linejoin:round;stroke-miterlimit:4;stroke-opacity:1;stroke-dasharray:none;display:inline;filter:url(#filter11752)"
       id="path11553"
       sodipodi:cx="8467.0986"
       sodipodi:cy="-3184.2175"
       sodipodi:rx="115.15739"
       sodipodi:ry="115.15739"
       d="m 8582.256,-3184.2175 a 115.15739,115.15739 0 1 1 -230.3148,0 115.15739,115.15739 0 1 1 230.3148,0 z"
       transform="matrix(-0.02092443,-0.22680895,0.22680895,-0.02092443,1155.3247,2102.9891)" />
    <path
       inkscape:connector-curvature="0"
       id="path11555"
       d="m 776.29798,124.09171 -30.059,-24.869295 -84.8144,102.523625 -59.3703,71.76438 -88.1683,-72.93978"
       style="opacity:0.55309735;fill:none;stroke:#d4e9fe;stroke-width:13.97103024;stroke-linecap:butt;stroke-linejoin:miter;stroke-miterlimit:4;stroke-opacity:0.92156863;stroke-dasharray:none;display:inline;filter:url(#filter11748)"
       sodipodi:nodetypes="ccccc" />
    <path
       transform="matrix(0.12879812,-0.18785945,0.18785945,0.12879812,185.48268,2184.4413)"
       d="m 8582.256,-3184.2175 a 115.15739,115.15739 0 1 1 -230.3148,0 115.15739,115.15739 0 1 1 230.3148,0 z"
       sodipodi:ry="115.15739"
       sodipodi:rx="115.15739"
       sodipodi:cy="-3184.2175"
       sodipodi:cx="8467.0986"
       id="path11557"
       style="opacity:0.55309735;fill:#d4e9fe;fill-opacity:0.92156863;stroke:#2d5e99;stroke-width:20;stroke-linecap:round;stroke-linejoin:round;stroke-miterlimit:4;stroke-opacity:1;stroke-dasharray:none;display:inline;filter:url(#filter11744)"
       sodipodi:type="arc" />
    <path
       inkscape:connector-curvature="0"
       id="path11559"
       d="m 254.76568,428.34052 -36.1093,14.7701 50.3808,123.1518 35.2647,86.2053 -105.9091,43.3259"
       style="opacity:0.55309735;fill:none;stroke:#d4e9fe;stroke-width:13.97103024;stroke-linecap:butt;stroke-linejoin:miter;stroke-miterlimit:4;stroke-opacity:0.92156863;stroke-dasharray:none;display:inline;filter:url(#filter11740)"
       sodipodi:nodetypes="ccccc" />
    <path
       transform="matrix(0.17092443,0.15054891,-0.15054891,0.17092443,-1663.4197,-175.42669)"
       d="m 8582.256,-3184.2175 a 115.15739,115.15739 0 1 1 -230.3148,0 115.15739,115.15739 0 1 1 230.3148,0 z"
       sodipodi:ry="115.15739"
       sodipodi:rx="115.15739"
       sodipodi:cy="-3184.2175"
       sodipodi:cx="8467.0986"
       id="path11561"
       style="opacity:0.55309735;fill:#d4e9fe;fill-opacity:0.92156863;stroke:#2d5e99;stroke-width:20;stroke-linecap:round;stroke-linejoin:round;stroke-miterlimit:4;stroke-opacity:1;stroke-dasharray:none;display:inline;filter:url(#filter11736)"
       sodipodi:type="arc" />
  </g>
</svg>
