<?xml version="1.0" encoding="UTF-8" standalone="no"?>
<!-- Created with Inkscape (http://www.inkscape.org/) -->

<svg
   xmlns:dc="http://purl.org/dc/elements/1.1/"
   xmlns:cc="http://creativecommons.org/ns#"
   xmlns:rdf="http://www.w3.org/1999/02/22-rdf-syntax-ns#"
   xmlns:svg="http://www.w3.org/2000/svg"
   xmlns="http://www.w3.org/2000/svg"
   xmlns:sodipodi="http://sodipodi.sourceforge.net/DTD/sodipodi-0.dtd"
   xmlns:inkscape="http://www.inkscape.org/namespaces/inkscape"
   width="1062.9921"
   height="761.81104"
   id="svg6535"
   version="1.1"
   inkscape:version="0.48.4 r9939"
   sodipodi:docname="New document 7">
  <defs
     id="defs3" />
  <sodipodi:namedview
     inkscape:document-units="mm"
     id="base"
     pagecolor="#ffffff"
     bordercolor="#666666"
     borderopacity="1.0"
     inkscape:pageopacity="0.0"
     inkscape:pageshadow="2"
     inkscape:zoom="0.49497475"
     inkscape:cx="347.90791"
     inkscape:cy="439.1878"
     inkscape:current-layer="layer1"
     showgrid="false"
     units="mm"
     inkscape:window-width="1416"
     inkscape:window-height="883"
     inkscape:window-x="396"
     inkscape:window-y="325"
     inkscape:window-maximized="0" />
  <metadata
     id="metadata4">
    <rdf:RDF>
      <cc:Work
         rdf:about="">
        <dc:format>image/svg+xml</dc:format>
        <dc:type
           rdf:resource="http://purl.org/dc/dcmitype/StillImage" />
        <dc:title></dc:title>
      </cc:Work>
    </rdf:RDF>
  </metadata>
  <g
     inkscape:label="Layer 1"
     inkscape:groupmode="layer"
     id="layer1"
     transform="translate(0,-290.55118)">
    <path
       inkscape:connector-curvature="0"
       id="path5205"
       d="m 31.063901,376.35261 0,12.87581 36.695,0 0,13.51961 -18.67,0 0,32.18952 0,25.10783 -28.97,0 0,13.51961"
       style="opacity:0.73893804;fill:none;stroke:#d4e9fe;stroke-width:6.75980186;stroke-linecap:butt;stroke-linejoin:miter;stroke-miterlimit:4;stroke-opacity:0.92156863;stroke-dasharray:none;display:inline" />
    <path
       sodipodi:nodetypes="cccccc"
       inkscape:connector-curvature="0"
       id="path5207"
       d="m 349.09594,455.53885 -236.27204,-0.8536 0,-19.7477 -64.378999,0 -45.0650001,0 0,-55.36599"
       style="opacity:0.73893804;fill:none;stroke:#fed4e4;stroke-width:6.75980186;stroke-linecap:butt;stroke-linejoin:miter;stroke-miterlimit:4;stroke-opacity:0.92156863;stroke-dasharray:none;display:inline" />
    <path
       transform="matrix(0.11020621,0,0,0.11020621,-885.7411,786.66663)"
       d="m 8582.256,-3184.2175 c 0,63.5996 -51.5577,115.1574 -115.1574,115.1574 -63.5996,0 -115.1574,-51.5578 -115.1574,-115.1574 0,-63.5997 51.5578,-115.1574 115.1574,-115.1574 63.5997,0 115.1574,51.5577 115.1574,115.1574 z"
       sodipodi:ry="115.15739"
       sodipodi:rx="115.15739"
       sodipodi:cy="-3184.2175"
       sodipodi:cx="8467.0986"
       id="path5209"
       style="opacity:0.73893804;fill:#d4e9fe;fill-opacity:0.92156863;stroke:#2d5e99;stroke-width:20;stroke-linecap:round;stroke-linejoin:round;stroke-miterlimit:4;stroke-opacity:1;stroke-dasharray:none;display:inline"
       sodipodi:type="arc" />
    <path
       style="opacity:0.73893804;fill:none;stroke:#fed4e4;stroke-width:6.75980186;stroke-linecap:butt;stroke-linejoin:miter;stroke-miterlimit:4;stroke-opacity:0.92156863;stroke-dasharray:none;display:inline"
       d="m 213.1619,569.36026 10.33,7.68634 21.905,-29.44 10.846,8.07064 -11.144,14.97814 25.825,19.21584 20.143,14.98836 -17.295,23.24237 10.846,8.07065"
       id="path5211"
       inkscape:connector-curvature="0" />
    <path
       sodipodi:nodetypes="cccccc"
       style="opacity:0.73893804;fill:none;stroke:#d4e9fe;stroke-width:6.75980186;stroke-linecap:butt;stroke-linejoin:miter;stroke-miterlimit:4;stroke-opacity:0.92156863;stroke-dasharray:none;display:inline"
       d="m 416.03294,522.17126 -91.92,27.83486 -15.14204,-11.26768 -38.432,51.64943 -26.902,36.15466 -44.419,-33.05125"
       id="path5213"
       inkscape:connector-curvature="0" />
    <path
       sodipodi:type="arc"
       style="opacity:0.73893804;fill:#d4e9fe;fill-opacity:0.92156863;stroke:#2d5e99;stroke-width:20;stroke-linecap:round;stroke-linejoin:round;stroke-miterlimit:4;stroke-opacity:1;stroke-dasharray:none;display:inline"
       id="path5215"
       sodipodi:cx="8467.0986"
       sodipodi:cy="-3184.2175"
       sodipodi:rx="115.15739"
       sodipodi:ry="115.15739"
       d="m 8582.256,-3184.2175 c 0,63.5996 -51.5577,115.1574 -115.1574,115.1574 -63.5996,0 -115.1574,-51.5578 -115.1574,-115.1574 0,-63.5997 51.5578,-115.1574 115.1574,-115.1574 63.5997,0 115.1574,51.5577 115.1574,115.1574 z"
       transform="matrix(0.06578861,-0.08841531,0.08841531,0.06578861,-4.9490991,1549.8268)" />
    <path
       inkscape:connector-curvature="0"
       id="path5217"
       d="m 415.52994,524.83951 3.003,-12.52053 -35.683,-8.56053 3.154,-13.14651 18.155,4.35544 7.509,-31.30133 5.857,-24.41505 28.172,6.75839 3.153,-13.14652"
       style="opacity:0.73893804;fill:none;stroke:#fed4e4;stroke-width:6.75980186;stroke-linecap:butt;stroke-linejoin:miter;stroke-miterlimit:4;stroke-opacity:0.92156863;stroke-dasharray:none;display:inline" />
    <path
       sodipodi:nodetypes="ccccc"
       inkscape:connector-curvature="0"
       id="path5219"
       d="m 354.36794,426.40282 -5.964,29.47636 63.891,7.93709 43.821,10.51313 -12.915,53.83843"
       style="opacity:0.73893804;fill:none;stroke:#d4e9fe;stroke-width:6.75980186;stroke-linecap:butt;stroke-linejoin:miter;stroke-miterlimit:4;stroke-opacity:0.92156863;stroke-dasharray:none;display:inline" />
    <path
       transform="matrix(-0.10716543,-0.02570952,0.02570952,-0.10716543,1402.7579,339.72402)"
       d="m 8582.256,-3184.2175 c 0,63.5996 -51.5577,115.1574 -115.1574,115.1574 -63.5996,0 -115.1574,-51.5578 -115.1574,-115.1574 0,-63.5997 51.5578,-115.1574 115.1574,-115.1574 63.5997,0 115.1574,51.5577 115.1574,115.1574 z"
       sodipodi:ry="115.15739"
       sodipodi:rx="115.15739"
       sodipodi:cy="-3184.2175"
       sodipodi:cx="8467.0986"
       id="path5221"
       style="opacity:0.73893804;fill:#d4e9fe;fill-opacity:0.92156863;stroke:#2d5e99;stroke-width:20;stroke-linecap:round;stroke-linejoin:round;stroke-miterlimit:4;stroke-opacity:1;stroke-dasharray:none;display:inline"
       sodipodi:type="arc" />
    <path
       sodipodi:nodetypes="cccccccccc"
       inkscape:connector-curvature="0"
       id="path5223"
       d="m 40.695901,597.85035 12.858,-0.68584 -1.955,-36.64366 13.501,-0.7201 0.994,18.64321 32.143,-1.71458 25.072999,-1.33742 1.543,28.92954 75.158,-8.34415 15.598,-25.85306"
       style="opacity:0.73893804;fill:none;stroke:#fed4e4;stroke-width:6.75980186;stroke-linecap:butt;stroke-linejoin:miter;stroke-miterlimit:4;stroke-opacity:0.92156863;stroke-dasharray:none;display:inline" />
    <path
       inkscape:connector-curvature="0"
       id="path5225"
       d="m 166.6259,431.94281 -52.934,80.13663 -18.848999,1.00532 3.429,64.28766 2.399999,45.00139 -55.286999,2.94922"
       style="opacity:0.73893804;fill:none;stroke:#d4e9fe;stroke-width:6.75980186;stroke-linecap:butt;stroke-linejoin:miter;stroke-miterlimit:4;stroke-opacity:0.92156863;stroke-dasharray:none;display:inline"
       sodipodi:nodetypes="cccccc" />
    <path
       transform="matrix(-0.00587033,-0.11004975,0.11004975,-0.00587033,499.26194,1491.4967)"
       d="m 8582.256,-3184.2175 c 0,63.5996 -51.5577,115.1574 -115.1574,115.1574 -63.5996,0 -115.1574,-51.5578 -115.1574,-115.1574 0,-63.5997 51.5578,-115.1574 115.1574,-115.1574 63.5997,0 115.1574,51.5577 115.1574,115.1574 z"
       sodipodi:ry="115.15739"
       sodipodi:rx="115.15739"
       sodipodi:cy="-3184.2175"
       sodipodi:cx="8467.0986"
       id="path5227"
       style="opacity:0.73893804;fill:#d4e9fe;fill-opacity:0.92156863;stroke:#2d5e99;stroke-width:20;stroke-linecap:round;stroke-linejoin:round;stroke-miterlimit:4;stroke-opacity:1;stroke-dasharray:none;display:inline"
       sodipodi:type="arc" />
    <path
       sodipodi:nodetypes="ccccccccc"
       style="opacity:0.73893804;fill:none;stroke:#fed4e4;stroke-width:6.75980186;stroke-linecap:butt;stroke-linejoin:miter;stroke-miterlimit:4;stroke-opacity:0.92156863;stroke-dasharray:none;display:inline"
       d="m 219.9749,323.4297 1.617,12.77392 36.405,-4.60919 1.698,13.41236 -18.522,2.345 4.043,31.93456 3.154,24.90893 -28.742,3.63896 -54.955,25.64438"
       id="path5229"
       inkscape:connector-curvature="0" />
    <path
       sodipodi:nodetypes="cccccc"
       style="opacity:0.73893804;fill:none;stroke:#d4e9fe;stroke-width:6.75980186;stroke-linecap:butt;stroke-linejoin:miter;stroke-miterlimit:4;stroke-opacity:0.92156863;stroke-dasharray:none;display:inline"
       d="m 354.02494,428.61692 -43.20804,-38.6099 -2.371,-18.72547 -63.869,8.08562 -44.708,5.66027 -6.954,-54.92769"
       id="path5231"
       inkscape:connector-curvature="0" />
    <path
       sodipodi:type="arc"
       style="opacity:0.73893804;fill:#d4e9fe;fill-opacity:0.92156863;stroke:#2d5e99;stroke-width:20;stroke-linecap:round;stroke-linejoin:round;stroke-miterlimit:4;stroke-opacity:1;stroke-dasharray:none;display:inline"
       id="path5233"
       sodipodi:cx="8467.0986"
       sodipodi:cy="-3184.2175"
       sodipodi:rx="115.15739"
       sodipodi:ry="115.15739"
       d="m 8582.256,-3184.2175 c 0,63.5996 -51.5577,115.1574 -115.1574,115.1574 -63.5996,0 -115.1574,-51.5578 -115.1574,-115.1574 0,-63.5997 51.5578,-115.1574 115.1574,-115.1574 63.5997,0 115.1574,51.5577 115.1574,115.1574 z"
       transform="matrix(0.10933351,-0.01384165,0.01384165,0.10933351,-638.0351,845.64288)" />
    <path
       style="opacity:0.73893804;fill:none;stroke:#d4e9fe;stroke-width:6.75980186;stroke-linecap:butt;stroke-linejoin:miter;stroke-miterlimit:4;stroke-opacity:0.92156863;stroke-dasharray:none;display:inline"
       d="m 385.67994,579.28451 9.679,8.49027 24.198,-27.58747 10.163,8.91479 -12.311,14.03619 24.2,21.22569 18.876,16.55603 -19.103,21.77958 10.164,8.9148"
       id="path5235"
       inkscape:connector-curvature="0" />
    <path
       style="opacity:0.73893804;fill:none;stroke:#fed4e4;stroke-width:6.75980186;stroke-linecap:butt;stroke-linejoin:miter;stroke-miterlimit:4;stroke-opacity:0.92156863;stroke-dasharray:none;display:inline"
       d="m 654.92094,392.40512 -156.439,177.06468 -14.847,-13.02159 -42.451,48.39998 -29.716,33.87959 -41.624,-36.50819"
       id="path5237"
       inkscape:connector-curvature="0"
       sodipodi:nodetypes="cccccc" />
    <path
       sodipodi:type="arc"
       style="opacity:0.73893804;fill:#d4e9fe;fill-opacity:0.92156863;stroke:#2d5e99;stroke-width:20;stroke-linecap:round;stroke-linejoin:round;stroke-miterlimit:4;stroke-opacity:1;stroke-dasharray:none;display:inline"
       id="path5239"
       sodipodi:cx="8467.0986"
       sodipodi:cy="-3184.2175"
       sodipodi:rx="115.15739"
       sodipodi:ry="115.15739"
       d="m 8582.256,-3184.2175 c 0,63.5996 -51.5577,115.1574 -115.1574,115.1574 -63.5996,0 -115.1574,-51.5578 -115.1574,-115.1574 0,-63.5997 51.5578,-115.1574 115.1574,-115.1574 63.5997,0 115.1574,51.5577 115.1574,115.1574 z"
       transform="matrix(0.07266967,-0.08285243,0.08285243,0.07266967,89.612901,1539.0934)" />
    <path
       inkscape:connector-curvature="0"
       id="path5241"
       d="m 650.85594,569.6532 12.591,-2.69823 -7.689,-35.88085 13.219,-2.8322 3.912,18.25489 31.476,-6.74422 24.55,-5.26047 6.07,28.32823 13.219,-2.83219"
       style="opacity:0.73893804;fill:none;stroke:#fed4e4;stroke-width:6.75980186;stroke-linecap:butt;stroke-linejoin:miter;stroke-miterlimit:4;stroke-opacity:0.92156863;stroke-dasharray:none;display:inline" />
    <path
       inkscape:connector-curvature="0"
       id="path5243"
       d="m 749.15294,386.01913 -39.686,87.45897 -18.456,3.95402 13.489,62.95031 9.44,44.06559 -54.136,11.59942"
       style="opacity:0.73893804;fill:none;stroke:#d4e9fe;stroke-width:6.75980186;stroke-linecap:butt;stroke-linejoin:miter;stroke-miterlimit:4;stroke-opacity:0.92156863;stroke-dasharray:none;display:inline"
       sodipodi:nodetypes="cccccc" />
    <path
       transform="matrix(-0.02308933,-0.10776034,0.10776034,-0.02308933,1244.1439,1380.1449)"
       d="m 8582.256,-3184.2175 c 0,63.5996 -51.5577,115.1574 -115.1574,115.1574 -63.5996,0 -115.1574,-51.5578 -115.1574,-115.1574 0,-63.5997 51.5578,-115.1574 115.1574,-115.1574 63.5997,0 115.1574,51.5577 115.1574,115.1574 z"
       sodipodi:ry="115.15739"
       sodipodi:rx="115.15739"
       sodipodi:cy="-3184.2175"
       sodipodi:cx="8467.0986"
       id="path5245"
       style="opacity:0.73893804;fill:#d4e9fe;fill-opacity:0.92156863;stroke:#2d5e99;stroke-width:20;stroke-linecap:round;stroke-linejoin:round;stroke-miterlimit:4;stroke-opacity:1;stroke-dasharray:none;display:inline"
       sodipodi:type="arc" />
    <path
       style="opacity:0.73893804;fill:none;stroke:#fed4e4;stroke-width:6.75980186;stroke-linecap:butt;stroke-linejoin:miter;stroke-miterlimit:4;stroke-opacity:0.92156863;stroke-dasharray:none;display:inline"
       d="m 750.82594,388.15708 -7.432,-10.5141 -29.965,21.18157 -7.804,-11.04008 15.246,-10.77684 -18.581,-26.2849 -14.492,-20.50288 23.657,-16.72296 -7.804,-11.0394"
       id="path5247"
       inkscape:connector-curvature="0" />
    <path
       style="opacity:0.73893804;fill:none;stroke:#d4e9fe;stroke-width:6.75980186;stroke-linecap:butt;stroke-linejoin:miter;stroke-miterlimit:4;stroke-opacity:0.92156863;stroke-dasharray:none;display:inline"
       d="m 636.49294,369.22913 18.227,23.92008 48.097,-42.79869 36.799,-26.01223 31.959,45.21051"
       id="path5249"
       inkscape:connector-curvature="0"
       sodipodi:nodetypes="ccccc" />
    <path
       sodipodi:type="arc"
       style="opacity:0.73893804;fill:#d4e9fe;fill-opacity:0.92156863;stroke:#2d5e99;stroke-width:20;stroke-linecap:round;stroke-linejoin:round;stroke-miterlimit:4;stroke-opacity:1;stroke-dasharray:none;display:inline"
       id="path5251"
       sodipodi:cx="8467.0986"
       sodipodi:cy="-3184.2175"
       sodipodi:rx="115.15739"
       sodipodi:ry="115.15739"
       d="m 8582.256,-3184.2175 c 0,63.5996 -51.5577,115.1574 -115.1574,115.1574 -63.5996,0 -115.1574,-51.5578 -115.1574,-115.1574 0,-63.5997 51.5578,-115.1574 115.1574,-115.1574 63.5997,0 115.1574,51.5577 115.1574,115.1574 z"
       transform="matrix(-0.08999287,0.06361361,-0.06361361,-0.08999287,1262.6339,-476.10063)" />
    <path
       style="opacity:0.73893804;fill:none;stroke:#fed4e4;stroke-width:6.75980186;stroke-linecap:butt;stroke-linejoin:miter;stroke-miterlimit:4;stroke-opacity:0.92156863;stroke-dasharray:none;display:inline"
       d="m 558.55094,718.09808 7.963,-10.11887 -28.837,-22.69303 8.361,-10.62431 14.672,11.54581 19.905,-25.2958 15.528,-19.73161 22.766,17.91598 43.286,-62.00558 -9.15,-28.7737"
       id="path5253"
       inkscape:connector-curvature="0"
       sodipodi:nodetypes="cccccccccc" />
    <path
       sodipodi:nodetypes="cccccc"
       style="opacity:0.73893804;fill:none;stroke:#d4e9fe;stroke-width:6.75980186;stroke-linecap:butt;stroke-linejoin:miter;stroke-miterlimit:4;stroke-opacity:0.92156863;stroke-dasharray:none;display:inline"
       d="m 516.86094,514.0256 25.342,92.63778 -11.674,14.83345 50.593,39.81316 35.414,27.86923 -34.239,43.50903"
       id="path5255"
       inkscape:connector-curvature="0" />
    <path
       sodipodi:type="arc"
       style="opacity:0.73893804;fill:#d4e9fe;fill-opacity:0.92156863;stroke:#2d5e99;stroke-width:20;stroke-linecap:round;stroke-linejoin:round;stroke-miterlimit:4;stroke-opacity:1;stroke-dasharray:none;display:inline"
       id="path5257"
       sodipodi:cx="8467.0986"
       sodipodi:cy="-3184.2175"
       sodipodi:rx="115.15739"
       sodipodi:ry="115.15739"
       d="m 8582.256,-3184.2175 c 0,63.5996 -51.5577,115.1574 -115.1574,115.1574 -63.5996,0 -115.1574,-51.5578 -115.1574,-115.1574 0,-63.5997 51.5578,-115.1574 115.1574,-115.1574 63.5997,0 115.1574,51.5577 115.1574,115.1574 z"
       transform="matrix(-0.08660569,-0.06815323,0.06815323,-0.08660569,1532.7679,962.61848)" />
    <path
       inkscape:connector-curvature="0"
       id="path5259"
       d="m 470.45994,402.36477 10.669,7.20777 20.54,-30.40852 11.203,7.56738 -10.45,15.4713 26.674,18.0179 20.807,14.05358 -16.218,24.00792 -16.957,58.22455"
       style="opacity:0.73893804;fill:none;stroke:#fed4e4;stroke-width:6.75980186;stroke-linecap:butt;stroke-linejoin:miter;stroke-miterlimit:4;stroke-opacity:0.92156863;stroke-dasharray:none;display:inline"
       sodipodi:nodetypes="ccccccccc" />
    <path
       inkscape:connector-curvature="0"
       id="path5261"
       d="m 637.93094,370.9469 -57.518,7.02426 -15.641,-10.5648 -36.036,53.34766 -25.226,37.34392 -45.879,-30.99098"
       style="opacity:0.73893804;fill:none;stroke:#d4e9fe;stroke-width:6.75980186;stroke-linecap:butt;stroke-linejoin:miter;stroke-miterlimit:4;stroke-opacity:0.92156863;stroke-dasharray:none;display:inline"
       sodipodi:nodetypes="cccccc" />
    <path
       transform="matrix(0.06168815,-0.09132349,0.09132349,0.06168815,297.2869,1391.7581)"
       d="m 8582.256,-3184.2175 c 0,63.5996 -51.5577,115.1574 -115.1574,115.1574 -63.5996,0 -115.1574,-51.5578 -115.1574,-115.1574 0,-63.5997 51.5578,-115.1574 115.1574,-115.1574 63.5997,0 115.1574,51.5577 115.1574,115.1574 z"
       sodipodi:ry="115.15739"
       sodipodi:rx="115.15739"
       sodipodi:cy="-3184.2175"
       sodipodi:cx="8467.0986"
       id="path5263"
       style="opacity:0.73893804;fill:#d4e9fe;fill-opacity:0.92156863;stroke:#2d5e99;stroke-width:20;stroke-linecap:round;stroke-linejoin:round;stroke-miterlimit:4;stroke-opacity:1;stroke-dasharray:none;display:inline"
       sodipodi:type="arc" />
    <path
       inkscape:connector-curvature="0"
       id="path5265"
       d="m 671.58694,632.43391 9.679,8.49027 24.198,-27.58747 10.164,8.91479 -12.311,14.03619 24.199,21.22569 18.876,16.55603 -19.103,21.77958 10.164,8.9148"
       style="opacity:0.73893804;fill:none;stroke:#d4e9fe;stroke-width:6.75980186;stroke-linecap:butt;stroke-linejoin:miter;stroke-miterlimit:4;stroke-opacity:0.92156863;stroke-dasharray:none;display:inline" />
    <path
       sodipodi:nodetypes="cccccc"
       inkscape:connector-curvature="0"
       id="path5267"
       d="m 940.82794,445.55452 -156.438,177.06468 -14.847,-13.02159 -42.451,48.39998 -29.716,33.87959 -41.624,-36.50819"
       style="opacity:0.73893804;fill:none;stroke:#fed4e4;stroke-width:6.75980186;stroke-linecap:butt;stroke-linejoin:miter;stroke-miterlimit:4;stroke-opacity:0.92156863;stroke-dasharray:none;display:inline" />
    <path
       transform="matrix(0.07266967,-0.08285243,0.08285243,0.07266967,375.51994,1592.2428)"
       d="m 8582.256,-3184.2175 c 0,63.5996 -51.5577,115.1574 -115.1574,115.1574 -63.5996,0 -115.1574,-51.5578 -115.1574,-115.1574 0,-63.5997 51.5578,-115.1574 115.1574,-115.1574 63.5997,0 115.1574,51.5577 115.1574,115.1574 z"
       sodipodi:ry="115.15739"
       sodipodi:rx="115.15739"
       sodipodi:cy="-3184.2175"
       sodipodi:cx="8467.0986"
       id="path5269"
       style="opacity:0.73893804;fill:#d4e9fe;fill-opacity:0.92156863;stroke:#2d5e99;stroke-width:20;stroke-linecap:round;stroke-linejoin:round;stroke-miterlimit:4;stroke-opacity:1;stroke-dasharray:none;display:inline"
       sodipodi:type="arc" />
    <path
       style="opacity:0.73893804;fill:none;stroke:#fed4e4;stroke-width:6.75980186;stroke-linecap:butt;stroke-linejoin:miter;stroke-miterlimit:4;stroke-opacity:0.92156863;stroke-dasharray:none;display:inline"
       d="m 936.76294,622.8026 12.592,-2.69823 -7.69,-35.88084 13.22,-2.83221 3.911,18.25489 31.476,-6.74422 24.54996,-5.26047 6.07,28.32823 13.219,-2.83219"
       id="path5271"
       inkscape:connector-curvature="0" />
    <path
       sodipodi:nodetypes="cccccc"
       style="opacity:0.73893804;fill:none;stroke:#d4e9fe;stroke-width:6.75980186;stroke-linecap:butt;stroke-linejoin:miter;stroke-miterlimit:4;stroke-opacity:0.92156863;stroke-dasharray:none;display:inline"
       d="m 1035.0599,439.16853 -39.68496,87.45897 -18.456,3.95402 13.488,62.95031 9.441,44.06559 -54.137,11.59942"
       id="path5273"
       inkscape:connector-curvature="0" />
    <path
       sodipodi:type="arc"
       style="opacity:0.73893804;fill:#d4e9fe;fill-opacity:0.92156863;stroke:#2d5e99;stroke-width:20;stroke-linecap:round;stroke-linejoin:round;stroke-miterlimit:4;stroke-opacity:1;stroke-dasharray:none;display:inline"
       id="path5275"
       sodipodi:cx="8467.0986"
       sodipodi:cy="-3184.2175"
       sodipodi:rx="115.15739"
       sodipodi:ry="115.15739"
       d="m 8582.256,-3184.2175 c 0,63.5996 -51.5577,115.1574 -115.1574,115.1574 -63.5996,0 -115.1574,-51.5578 -115.1574,-115.1574 0,-63.5997 51.5578,-115.1574 115.1574,-115.1574 63.5997,0 115.1574,51.5577 115.1574,115.1574 z"
       transform="matrix(-0.02308933,-0.10776034,0.10776034,-0.02308933,1530.0519,1433.2943)" />
    <path
       inkscape:connector-curvature="0"
       id="path5277"
       d="m 1036.7339,441.30648 -7.432,-10.5141 -29.96596,21.18157 -7.803,-11.04008 15.24596,-10.77684 -18.58196,-26.2849 -14.492,-20.50288 23.657,-16.72296 -7.804,-11.0394"
       style="opacity:0.73893804;fill:none;stroke:#fed4e4;stroke-width:6.75980186;stroke-linecap:butt;stroke-linejoin:miter;stroke-miterlimit:4;stroke-opacity:0.92156863;stroke-dasharray:none;display:inline" />
    <path
       sodipodi:nodetypes="ccccc"
       inkscape:connector-curvature="0"
       id="path5279"
       d="m 922.39994,422.37853 18.228,23.92008 48.096,-42.79869 36.79896,-26.01223 31.959,45.21051"
       style="opacity:0.73893804;fill:none;stroke:#d4e9fe;stroke-width:6.75980186;stroke-linecap:butt;stroke-linejoin:miter;stroke-miterlimit:4;stroke-opacity:0.92156863;stroke-dasharray:none;display:inline" />
    <path
       transform="matrix(-0.08999287,0.06361361,-0.06361361,-0.08999287,1548.5409,-422.95133)"
       d="m 8582.256,-3184.2175 c 0,63.5996 -51.5577,115.1574 -115.1574,115.1574 -63.5996,0 -115.1574,-51.5578 -115.1574,-115.1574 0,-63.5997 51.5578,-115.1574 115.1574,-115.1574 63.5997,0 115.1574,51.5577 115.1574,115.1574 z"
       sodipodi:ry="115.15739"
       sodipodi:rx="115.15739"
       sodipodi:cy="-3184.2175"
       sodipodi:cx="8467.0986"
       id="path5281"
       style="opacity:0.73893804;fill:#d4e9fe;fill-opacity:0.92156863;stroke:#2d5e99;stroke-width:20;stroke-linecap:round;stroke-linejoin:round;stroke-miterlimit:4;stroke-opacity:1;stroke-dasharray:none;display:inline"
       sodipodi:type="arc" />
    <path
       sodipodi:nodetypes="cccccccccc"
       inkscape:connector-curvature="0"
       id="path5283"
       d="m 844.45894,771.24748 7.963,-10.11887 -28.838,-22.69303 8.362,-10.62431 14.671,11.54581 19.906,-25.2958 15.528,-19.73161 22.766,17.91598 43.286,-62.00558 -9.151,-28.7737"
       style="opacity:0.73893804;fill:none;stroke:#fed4e4;stroke-width:6.75980186;stroke-linecap:butt;stroke-linejoin:miter;stroke-miterlimit:4;stroke-opacity:0.92156863;stroke-dasharray:none;display:inline" />
    <path
       inkscape:connector-curvature="0"
       id="path5285"
       d="m 802.76894,567.17501 25.341,92.63777 -11.673,14.83345 50.592,39.81316 35.415,27.86923 -34.239,43.50903"
       style="opacity:0.73893804;fill:none;stroke:#d4e9fe;stroke-width:6.75980186;stroke-linecap:butt;stroke-linejoin:miter;stroke-miterlimit:4;stroke-opacity:0.92156863;stroke-dasharray:none;display:inline"
       sodipodi:nodetypes="cccccc" />
    <path
       transform="matrix(-0.08660569,-0.06815323,0.06815323,-0.08660569,1818.6749,1015.7679)"
       d="m 8582.256,-3184.2175 c 0,63.5996 -51.5577,115.1574 -115.1574,115.1574 -63.5996,0 -115.1574,-51.5578 -115.1574,-115.1574 0,-63.5997 51.5578,-115.1574 115.1574,-115.1574 63.5997,0 115.1574,51.5577 115.1574,115.1574 z"
       sodipodi:ry="115.15739"
       sodipodi:rx="115.15739"
       sodipodi:cy="-3184.2175"
       sodipodi:cx="8467.0986"
       id="path5287"
       style="opacity:0.73893804;fill:#d4e9fe;fill-opacity:0.92156863;stroke:#2d5e99;stroke-width:20;stroke-linecap:round;stroke-linejoin:round;stroke-miterlimit:4;stroke-opacity:1;stroke-dasharray:none;display:inline"
       sodipodi:type="arc" />
    <path
       sodipodi:nodetypes="ccccccccc"
       style="opacity:0.73893804;fill:none;stroke:#fed4e4;stroke-width:6.75980186;stroke-linecap:butt;stroke-linejoin:miter;stroke-miterlimit:4;stroke-opacity:0.92156863;stroke-dasharray:none;display:inline"
       d="m 756.36694,455.51417 10.669,7.20777 20.54,-30.40852 11.204,7.56738 -10.451,15.47131 26.674,18.01789 20.807,14.05358 -16.217,24.00792 -16.958,58.22455"
       id="path5289"
       inkscape:connector-curvature="0" />
    <path
       sodipodi:nodetypes="cccccc"
       style="opacity:0.73893804;fill:none;stroke:#d4e9fe;stroke-width:6.75980186;stroke-linecap:butt;stroke-linejoin:miter;stroke-miterlimit:4;stroke-opacity:0.92156863;stroke-dasharray:none;display:inline"
       d="m 923.83894,424.0963 -57.518,7.02426 -15.642,-10.5648 -36.036,53.34766 -25.225,37.34392 -45.88,-30.99098"
       id="path5291"
       inkscape:connector-curvature="0" />
    <path
       sodipodi:type="arc"
       style="opacity:0.73893804;fill:#d4e9fe;fill-opacity:0.92156863;stroke:#2d5e99;stroke-width:20;stroke-linecap:round;stroke-linejoin:round;stroke-miterlimit:4;stroke-opacity:1;stroke-dasharray:none;display:inline"
       id="path5293"
       sodipodi:cx="8467.0986"
       sodipodi:cy="-3184.2175"
       sodipodi:rx="115.15739"
       sodipodi:ry="115.15739"
       d="m 8582.256,-3184.2175 c 0,63.5996 -51.5577,115.1574 -115.1574,115.1574 -63.5996,0 -115.1574,-51.5578 -115.1574,-115.1574 0,-63.5997 51.5578,-115.1574 115.1574,-115.1574 63.5997,0 115.1574,51.5577 115.1574,115.1574 z"
       transform="matrix(0.06168815,-0.09132349,0.09132349,0.06168815,583.19394,1444.9075)" />
    <path
       style="opacity:0.73893804;fill:none;stroke:#d4e9fe;stroke-width:6.75980186;stroke-linecap:butt;stroke-linejoin:miter;stroke-miterlimit:4;stroke-opacity:0.92156863;stroke-dasharray:none;display:inline"
       d="m 446.27394,744.89628 -0.463,12.86705 36.671,1.31961 -0.486,13.51074 -18.657,-0.6711 -1.158,32.1683 -0.902,25.09178 -28.952,-1.04151 -0.486,13.51076"
       id="path5295"
       inkscape:connector-curvature="0" />
    <path
       style="opacity:0.73893804;fill:none;stroke:#fed4e4;stroke-width:6.75980186;stroke-linecap:butt;stroke-linejoin:miter;stroke-miterlimit:4;stroke-opacity:0.92156863;stroke-dasharray:none;display:inline"
       d="m 761.25294,835.4638 -236.088,-9.34655 0.711,-19.73521 -64.339,-2.31419 -45.036,-1.62005 1.99,-55.33038"
       id="path5297"
       inkscape:connector-curvature="0"
       sodipodi:nodetypes="cccccc" />
    <path
       sodipodi:type="arc"
       style="opacity:0.73893804;fill:#d4e9fe;fill-opacity:0.92156863;stroke:#2d5e99;stroke-width:20;stroke-linecap:round;stroke-linejoin:round;stroke-miterlimit:4;stroke-opacity:1;stroke-dasharray:none;display:inline"
       id="path5299"
       sodipodi:cx="8467.0986"
       sodipodi:cy="-3184.2175"
       sodipodi:rx="115.15739"
       sodipodi:ry="115.15739"
       d="m 8582.256,-3184.2175 c 0,63.5996 -51.5577,115.1574 -115.1574,115.1574 -63.5996,0 -115.1574,-51.5578 -115.1574,-115.1574 0,-63.5997 51.5578,-115.1574 115.1574,-115.1574 63.5997,0 115.1574,51.5577 115.1574,115.1574 z"
       transform="matrix(0.11013498,0.00396163,-0.00396163,0.11013498,-484.6881,1121.9884)" />
    <path
       inkscape:connector-curvature="0"
       id="path5301"
       d="m 621.31494,944.32458 10.049,8.0534 22.949,-28.6339 10.548,8.4552 -11.676,14.5677 25.119,20.132 19.591,15.7026 -18.119,22.60612 10.548,8.4552"
       style="opacity:0.73893804;fill:none;stroke:#fed4e4;stroke-width:6.75980186;stroke-linecap:butt;stroke-linejoin:miter;stroke-miterlimit:4;stroke-opacity:0.92156863;stroke-dasharray:none;display:inline" />
    <path
       inkscape:connector-curvature="0"
       id="path5303"
       d="m 825.75194,904.45918 -92.861,24.5126 -14.728,-11.805 -40.262,50.235 -28.186,35.16382 -43.201,-34.62622"
       style="opacity:0.73893804;fill:none;stroke:#d4e9fe;stroke-width:6.75980186;stroke-linecap:butt;stroke-linejoin:miter;stroke-miterlimit:4;stroke-opacity:0.92156863;stroke-dasharray:none;display:inline"
       sodipodi:nodetypes="cccccc" />
    <path
       transform="matrix(0.06892439,-0.08599324,0.08599324,0.06892439,368.10094,1916.3174)"
       d="m 8582.256,-3184.2175 c 0,63.5996 -51.5577,115.1574 -115.1574,115.1574 -63.5996,0 -115.1574,-51.5578 -115.1574,-115.1574 0,-63.5997 51.5578,-115.1574 115.1574,-115.1574 63.5997,0 115.1574,51.5577 115.1574,115.1574 z"
       sodipodi:ry="115.15739"
       sodipodi:rx="115.15739"
       sodipodi:cy="-3184.2175"
       sodipodi:cx="8467.0986"
       id="path5305"
       style="opacity:0.73893804;fill:#d4e9fe;fill-opacity:0.92156863;stroke:#2d5e99;stroke-width:20;stroke-linecap:round;stroke-linejoin:round;stroke-miterlimit:4;stroke-opacity:1;stroke-dasharray:none;display:inline"
       sodipodi:type="arc" />
    <path
       style="opacity:0.73893804;fill:none;stroke:#fed4e4;stroke-width:6.75980186;stroke-linecap:butt;stroke-linejoin:miter;stroke-miterlimit:4;stroke-opacity:0.92156863;stroke-dasharray:none;display:inline"
       d="m 825.15294,907.10738 3.451,-12.4045 -35.352,-9.83781 3.625,-13.02445 17.987,5.00523 8.629,-31.0114 6.732,-24.1881 27.91,7.76638 3.623,-13.02473"
       id="path5307"
       inkscape:connector-curvature="0" />
    <path
       style="opacity:0.73893804;fill:none;stroke:#d4e9fe;stroke-width:6.75980186;stroke-linecap:butt;stroke-linejoin:miter;stroke-miterlimit:4;stroke-opacity:0.92156863;stroke-dasharray:none;display:inline"
       d="m 767.56994,806.53588 -7.02,29.24278 63.564,10.22904 43.415,12.08128 -14.842,53.3394"
       id="path5309"
       inkscape:connector-curvature="0"
       sodipodi:nodetypes="ccccc" />
    <path
       sodipodi:type="arc"
       style="opacity:0.73893804;fill:#d4e9fe;fill-opacity:0.92156863;stroke:#2d5e99;stroke-width:20;stroke-linecap:round;stroke-linejoin:round;stroke-miterlimit:4;stroke-opacity:1;stroke-dasharray:none;display:inline"
       id="path5311"
       sodipodi:cx="8467.0986"
       sodipodi:cy="-3184.2175"
       sodipodi:rx="115.15739"
       sodipodi:ry="115.15739"
       d="m 8582.256,-3184.2175 c 0,63.5996 -51.5577,115.1574 -115.1574,115.1574 -63.5996,0 -115.1574,-51.5578 -115.1574,-115.1574 0,-63.5997 51.5578,-115.1574 115.1574,-115.1574 63.5997,0 115.1574,51.5577 115.1574,115.1574 z"
       transform="matrix(-0.10617197,-0.02954522,0.02954522,-0.10617197,1818.3979,757.60012)" />
    <path
       style="opacity:0.73893804;fill:none;stroke:#fed4e4;stroke-width:6.75980186;stroke-linecap:butt;stroke-linejoin:miter;stroke-miterlimit:4;stroke-opacity:0.92156863;stroke-dasharray:none;display:inline"
       d="m 447.93694,966.59678 12.874,-0.2231 -0.636,-36.6903 13.518,-0.2339 0.324,18.6669 32.183,-0.5584 25.106,-0.435 0.501,28.9659 75.41,-5.637 16.517,-25.2752"
       id="path5313"
       inkscape:connector-curvature="0"
       sodipodi:nodetypes="cccccccccc" />
    <path
       sodipodi:nodetypes="cccccc"
       style="opacity:0.73893804;fill:none;stroke:#d4e9fe;stroke-width:6.75980186;stroke-linecap:butt;stroke-linejoin:miter;stroke-miterlimit:4;stroke-opacity:0.92156863;stroke-dasharray:none;display:inline"
       d="m 579.74994,805.32349 -55.781,78.18205 -18.873,0.32696 1.116,64.36938 0.781,45.0586 -55.358,0.9598"
       id="path5315"
       inkscape:connector-curvature="0" />
    <path
       sodipodi:type="arc"
       style="opacity:0.73893804;fill:#d4e9fe;fill-opacity:0.92156863;stroke:#2d5e99;stroke-width:20;stroke-linecap:round;stroke-linejoin:round;stroke-miterlimit:4;stroke-opacity:1;stroke-dasharray:none;display:inline"
       id="path5317"
       sodipodi:cx="8467.0986"
       sodipodi:cy="-3184.2175"
       sodipodi:rx="115.15739"
       sodipodi:ry="115.15739"
       d="m 8582.256,-3184.2175 c 0,63.5996 -51.5577,115.1574 -115.1574,115.1574 -63.5996,0 -115.1574,-51.5578 -115.1574,-115.1574 0,-63.5997 51.5578,-115.1574 115.1574,-115.1574 63.5997,0 115.1574,51.5577 115.1574,115.1574 z"
       transform="matrix(-0.00191053,-0.11018964,0.11018964,-0.00191053,874.08294,1876.1501)" />
    <path
       inkscape:connector-curvature="0"
       id="path5319"
       d="m 636.96494,698.79837 1.157,12.8236 36.547,-3.29786 1.215,13.46496 -18.595,1.67778 2.892,32.05909 2.257,25.00648 -28.855,2.60313 -55.84,23.65248"
       style="opacity:0.73893804;fill:none;stroke:#fed4e4;stroke-width:6.75980186;stroke-linecap:butt;stroke-linejoin:miter;stroke-miterlimit:4;stroke-opacity:0.92156863;stroke-dasharray:none;display:inline"
       sodipodi:nodetypes="ccccccccc" />
    <path
       inkscape:connector-curvature="0"
       id="path5321"
       d="m 767.14794,808.73647 -41.793,-40.13853 -1.696,-18.79853 -64.118,5.78452 -44.884,4.04937 -4.974,-55.14186"
       style="opacity:0.73893804;fill:none;stroke:#d4e9fe;stroke-width:6.75980186;stroke-linecap:butt;stroke-linejoin:miter;stroke-miterlimit:4;stroke-opacity:0.92156863;stroke-dasharray:none;display:inline"
       sodipodi:nodetypes="cccccc" />
    <path
       transform="matrix(0.10976042,-0.00990244,0.00990244,0.10976042,-239.2621,1189.8304)"
       d="m 8582.256,-3184.2175 c 0,63.5996 -51.5577,115.1574 -115.1574,115.1574 -63.5996,0 -115.1574,-51.5578 -115.1574,-115.1574 0,-63.5997 51.5578,-115.1574 115.1574,-115.1574 63.5997,0 115.1574,51.5577 115.1574,115.1574 z"
       sodipodi:ry="115.15739"
       sodipodi:rx="115.15739"
       sodipodi:cy="-3184.2175"
       sodipodi:cx="8467.0986"
       id="path5323"
       style="opacity:0.73893804;fill:#d4e9fe;fill-opacity:0.92156863;stroke:#2d5e99;stroke-width:20;stroke-linecap:round;stroke-linejoin:round;stroke-miterlimit:4;stroke-opacity:1;stroke-dasharray:none;display:inline"
       sodipodi:type="arc" />
    <path
       inkscape:connector-curvature="0"
       id="path5325"
       d="m 299.3109,1030.9872 9.393,-8.8058 -25.098,-26.77022 9.863,-9.2467 12.769,13.6196 23.48304,-22.0162 18.316,-17.1731 19.815,21.1338 9.863,-9.2468"
       style="opacity:0.73893804;fill:none;stroke:#d4e9fe;stroke-width:6.75980186;stroke-linecap:butt;stroke-linejoin:miter;stroke-miterlimit:4;stroke-opacity:0.92156863;stroke-dasharray:none;display:inline" />
    <path
       sodipodi:nodetypes="cccccc"
       inkscape:connector-curvature="0"
       id="path5327"
       d="m 139.5539,744.81955 160.98,172.94593 -14.407,13.5068 44.03404,46.9657 30.824,32.87542 -40.39,37.8689"
       style="opacity:0.73893804;fill:none;stroke:#fed4e4;stroke-width:6.75980186;stroke-linecap:butt;stroke-linejoin:miter;stroke-miterlimit:4;stroke-opacity:0.92156863;stroke-dasharray:none;display:inline" />
    <path
       transform="matrix(-0.07537796,-0.08039634,0.08039634,-0.07537796,1225.7079,1419.1606)"
       d="m 8582.256,-3184.2175 c 0,63.5996 -51.5577,115.1574 -115.1574,115.1574 -63.5996,0 -115.1574,-51.5578 -115.1574,-115.1574 0,-63.5997 51.5578,-115.1574 115.1574,-115.1574 63.5997,0 115.1574,51.5577 115.1574,115.1574 z"
       sodipodi:ry="115.15739"
       sodipodi:rx="115.15739"
       sodipodi:cy="-3184.2175"
       sodipodi:cx="8467.0986"
       id="path5329"
       style="opacity:0.73893804;fill:#d4e9fe;fill-opacity:0.92156863;stroke:#2d5e99;stroke-width:20;stroke-linecap:round;stroke-linejoin:round;stroke-miterlimit:4;stroke-opacity:1;stroke-dasharray:none;display:inline"
       sodipodi:type="arc" />
    <path
       style="opacity:0.73893804;fill:none;stroke:#fed4e4;stroke-width:6.75980186;stroke-linecap:butt;stroke-linejoin:miter;stroke-miterlimit:4;stroke-opacity:0.92156863;stroke-dasharray:none;display:inline"
       d="m 315.56294,766.13469 -1.459,-12.79462 -36.46004,4.15639 -1.53,-13.43195 18.548,-2.1143 -3.644,-31.98341 -2.844,-24.94583 28.78504,-3.28105 -1.531,-13.43195"
       id="path5331"
       inkscape:connector-curvature="0" />
    <path
       sodipodi:nodetypes="cccccc"
       style="opacity:0.73893804;fill:none;stroke:#d4e9fe;stroke-width:6.75980186;stroke-linecap:butt;stroke-linejoin:miter;stroke-miterlimit:4;stroke-opacity:0.92156863;stroke-dasharray:none;display:inline"
       d="m 142.3799,650.41348 83.176,48.01822 2.136,18.75361 63.965,-7.29162 44.77604,-5.10243 6.27,55.0095"
       id="path5333"
       inkscape:connector-curvature="0" />
    <path
       sodipodi:type="arc"
       style="opacity:0.73893804;fill:#d4e9fe;fill-opacity:0.92156863;stroke:#2d5e99;stroke-width:20;stroke-linecap:round;stroke-linejoin:round;stroke-miterlimit:4;stroke-opacity:1;stroke-dasharray:none;display:inline"
       id="path5335"
       sodipodi:cx="8467.0986"
       sodipodi:cy="-3184.2175"
       sodipodi:rx="115.15739"
       sodipodi:ry="115.15739"
       d="m 8582.256,-3184.2175 c 0,63.5996 -51.5577,115.1574 -115.1574,115.1574 -63.5996,0 -115.1574,-51.5578 -115.1574,-115.1574 0,-63.5997 51.5578,-115.1574 115.1574,-115.1574 63.5997,0 115.1574,51.5577 115.1574,115.1574 z"
       transform="matrix(-0.10949726,0.01248027,-0.01248027,-0.10949726,1180.0019,254.63587)" />
    <path
       inkscape:connector-curvature="0"
       id="path5337"
       d="m 144.6699,648.95631 -11.188,6.37258 18.161,31.88614 -11.748,6.69053 -9.24,-16.22289 -27.97,15.93183 -21.816999,12.42522 -14.339,-25.17379 -11.747,6.69198"
       style="opacity:0.73893804;fill:none;stroke:#fed4e4;stroke-width:6.75980186;stroke-linecap:butt;stroke-linejoin:miter;stroke-miterlimit:4;stroke-opacity:0.92156863;stroke-dasharray:none;display:inline" />
    <path
       sodipodi:nodetypes="ccccc"
       inkscape:connector-curvature="0"
       id="path5339"
       d="m 114.6919,760.90156 25.583,-15.81022 -37.909,-52.03755 L 80.061901,653.8955 128.1719,626.49312"
       style="opacity:0.73893804;fill:none;stroke:#d4e9fe;stroke-width:6.75980186;stroke-linecap:butt;stroke-linejoin:miter;stroke-miterlimit:4;stroke-opacity:0.92156863;stroke-dasharray:none;display:inline" />
    <path
       transform="matrix(0.05454284,0.09576266,-0.09576266,0.05454284,-665.6101,55.378068)"
       d="m 8582.256,-3184.2175 c 0,63.5996 -51.5577,115.1574 -115.1574,115.1574 -63.5996,0 -115.1574,-51.5578 -115.1574,-115.1574 0,-63.5997 51.5578,-115.1574 115.1574,-115.1574 63.5997,0 115.1574,51.5577 115.1574,115.1574 z"
       sodipodi:ry="115.15739"
       sodipodi:rx="115.15739"
       sodipodi:cy="-3184.2175"
       sodipodi:cx="8467.0986"
       id="path5341"
       style="opacity:0.73893804;fill:#d4e9fe;fill-opacity:0.92156863;stroke:#2d5e99;stroke-width:20;stroke-linecap:round;stroke-linejoin:round;stroke-miterlimit:4;stroke-opacity:1;stroke-dasharray:none;display:inline"
       sodipodi:type="arc" />
    <path
       sodipodi:nodetypes="cccccccccc"
       inkscape:connector-curvature="0"
       id="path5343"
       d="m 454.30794,872.46305 -9.295,-8.911 -25.395,26.48907 -9.759,-9.35645 12.92,-13.47704 -23.235,-22.27522 -18.125,-17.37687 20.048,-20.91207 -57.493,-49.12125 -29.528,6.30338"
       style="opacity:0.73893804;fill:none;stroke:#fed4e4;stroke-width:6.75980186;stroke-linecap:butt;stroke-linejoin:miter;stroke-miterlimit:4;stroke-opacity:0.92156863;stroke-dasharray:none;display:inline" />
    <path
       inkscape:connector-curvature="0"
       id="path5345"
       d="m 247.1449,894.07178 94.66504,-16.19491 13.626,13.06268 44.553,-46.47246 31.186,-32.53072 39.967,38.3154"
       style="opacity:0.73893804;fill:none;stroke:#d4e9fe;stroke-width:6.75980186;stroke-linecap:butt;stroke-linejoin:miter;stroke-miterlimit:4;stroke-opacity:0.92156863;stroke-dasharray:none;display:inline"
       sodipodi:nodetypes="cccccc" />
    <path
       transform="matrix(-0.07626706,0.0795534,-0.0795534,-0.07626706,792.58394,-73.294438)"
       d="m 8582.256,-3184.2175 c 0,63.5996 -51.5577,115.1574 -115.1574,115.1574 -63.5996,0 -115.1574,-51.5578 -115.1574,-115.1574 0,-63.5997 51.5578,-115.1574 115.1574,-115.1574 63.5997,0 115.1574,51.5577 115.1574,115.1574 z"
       sodipodi:ry="115.15739"
       sodipodi:rx="115.15739"
       sodipodi:cy="-3184.2175"
       sodipodi:cx="8467.0986"
       id="path5347"
       style="opacity:0.73893804;fill:#d4e9fe;fill-opacity:0.92156863;stroke:#2d5e99;stroke-width:20;stroke-linecap:round;stroke-linejoin:round;stroke-miterlimit:4;stroke-opacity:1;stroke-dasharray:none;display:inline"
       sodipodi:type="arc" />
    <path
       sodipodi:nodetypes="ccccccccc"
       style="opacity:0.73893804;fill:none;stroke:#fed4e4;stroke-width:6.75980186;stroke-linecap:butt;stroke-linejoin:miter;stroke-miterlimit:4;stroke-opacity:0.92156863;stroke-dasharray:none;display:inline"
       d="m 131.4939,929.37308 8.212,-9.9164 -28.262,-23.4047 8.623,-10.4131 14.379,11.9084 20.532,-24.79137 16.013,-19.33839 22.315,18.47926 56.294,22.5491"
       id="path5349"
       inkscape:connector-curvature="0" />
    <path
       sodipodi:nodetypes="cccccc"
       style="opacity:0.73893804;fill:none;stroke:#d4e9fe;stroke-width:6.75980186;stroke-linecap:butt;stroke-linejoin:miter;stroke-miterlimit:4;stroke-opacity:0.92156863;stroke-dasharray:none;display:inline"
       d="m 116.5419,759.63684 1.387,57.92942 -12.039,14.53735 49.583,41.06232 34.709,28.74415 -35.314,42.6416"
       id="path5351"
       inkscape:connector-curvature="0" />
    <path
       sodipodi:type="arc"
       style="opacity:0.73893804;fill:#d4e9fe;fill-opacity:0.92156863;stroke:#2d5e99;stroke-width:20;stroke-linecap:round;stroke-linejoin:round;stroke-miterlimit:4;stroke-opacity:1;stroke-dasharray:none;display:inline"
       id="path5353"
       sodipodi:cx="8467.0986"
       sodipodi:cy="-3184.2175"
       sodipodi:rx="115.15739"
       sodipodi:ry="115.15739"
       d="m 8582.256,-3184.2175 c 0,63.5996 -51.5577,115.1574 -115.1574,115.1574 -63.5996,0 -115.1574,-51.5578 -115.1574,-115.1574 0,-63.5997 51.5578,-115.1574 115.1574,-115.1574 63.5997,0 115.1574,51.5577 115.1574,115.1574 z"
       transform="matrix(-0.08487866,-0.07029241,0.07029241,-0.08487866,1099.3069,1198.1195)" />
    <path
       style="fill:none;stroke:#d4e9fe;stroke-width:15;stroke-linecap:butt;stroke-linejoin:miter;stroke-miterlimit:4;stroke-opacity:0.92156863;stroke-dasharray:none;display:inline"
       d="m 77.388901,412.3069 0,28.57143 81.427999,0 0,30 -41.428,0 0,71.42857 0,55.71428 -64.285999,0 0,30"
       id="path5161"
       inkscape:connector-curvature="0" />
    <path
       style="fill:none;stroke:#fed4e4;stroke-width:15;stroke-linecap:butt;stroke-linejoin:miter;stroke-miterlimit:4;stroke-opacity:0.92156863;stroke-dasharray:none;display:inline"
       d="m 783.10294,588.02118 -524.28604,-1.89415 0,-43.82013 -142.857,0 -99.999999,0 0,-122.85715"
       id="path5159"
       inkscape:connector-curvature="0"
       sodipodi:nodetypes="cccccc" />
    <path
       sodipodi:type="arc"
       style="fill:#d4e9fe;fill-opacity:0.92156863;stroke:#2d5e99;stroke-width:20;stroke-linecap:round;stroke-linejoin:round;stroke-miterlimit:4;stroke-opacity:1;stroke-dasharray:none;display:inline"
       id="path5143"
       sodipodi:cx="8467.0986"
       sodipodi:cy="-3184.2175"
       sodipodi:rx="115.15739"
       sodipodi:ry="115.15739"
       d="m 8582.256,-3184.2175 c 0,63.5996 -51.5577,115.1574 -115.1574,115.1574 -63.5996,0 -115.1574,-51.5578 -115.1574,-115.1574 0,-63.5997 51.5578,-115.1574 115.1574,-115.1574 63.5997,0 115.1574,51.5577 115.1574,115.1574 z"
       transform="matrix(0.24454758,0,0,0.24454758,-1956.9991,1322.7938)" />
    <path
       inkscape:connector-curvature="0"
       id="path5163"
       d="m 481.46594,840.59089 22.922,17.05598 48.609,-65.32737 24.068,17.90877 -24.731,33.23651 57.305,42.63994 44.698,33.25916 -38.376,51.5748 24.068,17.9088"
       style="fill:none;stroke:#fed4e4;stroke-width:15;stroke-linecap:butt;stroke-linejoin:miter;stroke-miterlimit:4;stroke-opacity:0.92156863;stroke-dasharray:none;display:inline" />
    <path
       inkscape:connector-curvature="0"
       id="path5165"
       d="m 931.63694,735.8785 -203.969,61.76556 -33.602,-25.003 -85.28,114.61011 -59.696,80.22711 -98.565,-73.3407"
       style="fill:none;stroke:#d4e9fe;stroke-width:15;stroke-linecap:butt;stroke-linejoin:miter;stroke-miterlimit:4;stroke-opacity:0.92156863;stroke-dasharray:none;display:inline"
       sodipodi:nodetypes="cccccc" />
    <path
       transform="matrix(0.14598493,-0.19619358,0.19619358,0.14598493,-2.5230991,3016.246)"
       d="m 8582.256,-3184.2175 c 0,63.5996 -51.5577,115.1574 -115.1574,115.1574 -63.5996,0 -115.1574,-51.5578 -115.1574,-115.1574 0,-63.5997 51.5578,-115.1574 115.1574,-115.1574 63.5997,0 115.1574,51.5577 115.1574,115.1574 z"
       sodipodi:ry="115.15739"
       sodipodi:rx="115.15739"
       sodipodi:cy="-3184.2175"
       sodipodi:cx="8467.0986"
       id="path5167"
       style="fill:#d4e9fe;fill-opacity:0.92156863;stroke:#2d5e99;stroke-width:20;stroke-linecap:round;stroke-linejoin:round;stroke-miterlimit:4;stroke-opacity:1;stroke-dasharray:none;display:inline"
       sodipodi:type="arc" />
    <path
       style="fill:none;stroke:#fed4e4;stroke-width:15;stroke-linecap:butt;stroke-linejoin:miter;stroke-miterlimit:4;stroke-opacity:0.92156863;stroke-dasharray:none;display:inline"
       d="m 930.52094,741.79933 6.665,-27.78305 -79.181,-18.99581 6.999,-29.17211 40.285,9.66472 16.663,-69.45763 12.997,-54.17704 62.513,14.99689 6.99796,-29.17211"
       id="path5169"
       inkscape:connector-curvature="0" />
    <path
       style="fill:none;stroke:#d4e9fe;stroke-width:15;stroke-linecap:butt;stroke-linejoin:miter;stroke-miterlimit:4;stroke-opacity:0.92156863;stroke-dasharray:none;display:inline"
       d="m 794.80394,523.36832 -13.235,65.40806 141.773,17.61238 97.23996,23.32864 -28.65996,119.46749"
       id="path5171"
       inkscape:connector-curvature="0"
       sodipodi:nodetypes="ccccc" />
    <path
       sodipodi:type="arc"
       style="fill:#d4e9fe;fill-opacity:0.92156863;stroke:#2d5e99;stroke-width:20;stroke-linecap:round;stroke-linejoin:round;stroke-miterlimit:4;stroke-opacity:1;stroke-dasharray:none;display:inline"
       id="path5173"
       sodipodi:cx="8467.0986"
       sodipodi:cy="-3184.2175"
       sodipodi:rx="115.15739"
       sodipodi:ry="115.15739"
       d="m 8582.256,-3184.2175 c 0,63.5996 -51.5577,115.1574 -115.1574,115.1574 -63.5996,0 -115.1574,-51.5578 -115.1574,-115.1574 0,-63.5997 51.5578,-115.1574 115.1574,-115.1574 63.5997,0 115.1574,51.5577 115.1574,115.1574 z"
       transform="matrix(-0.23780009,-0.05704944,0.05704944,-0.23780009,3121.1799,331.02806)" />
    <path
       style="fill:none;stroke:#fed4e4;stroke-width:15;stroke-linecap:butt;stroke-linejoin:miter;stroke-miterlimit:4;stroke-opacity:0.92156863;stroke-dasharray:none;display:inline"
       d="m 98.764901,903.81038 28.530999,-1.5219 -4.338,-81.31223 29.957,-1.59791 2.207,41.3693 71.327,-3.80469 55.635,-2.96772 3.425,64.19465 166.77704,-18.5157 34.609,-57.36791"
       id="path5193"
       inkscape:connector-curvature="0"
       sodipodi:nodetypes="cccccccccc" />
    <path
       sodipodi:nodetypes="cccccc"
       style="fill:none;stroke:#d4e9fe;stroke-width:15;stroke-linecap:butt;stroke-linejoin:miter;stroke-miterlimit:4;stroke-opacity:0.92156863;stroke-dasharray:none;display:inline"
       d="m 378.20194,535.66156 -117.46204,177.82318 -41.824,2.23083 7.609,142.65432 5.327,99.85809 -122.683,6.5443"
       id="path5195"
       inkscape:connector-curvature="0" />
    <path
       sodipodi:type="arc"
       style="fill:#d4e9fe;fill-opacity:0.92156863;stroke:#2d5e99;stroke-width:20;stroke-linecap:round;stroke-linejoin:round;stroke-miterlimit:4;stroke-opacity:1;stroke-dasharray:none;display:inline"
       id="path5197"
       sodipodi:cx="8467.0986"
       sodipodi:cy="-3184.2175"
       sodipodi:rx="115.15739"
       sodipodi:ry="115.15739"
       d="m 8582.256,-3184.2175 c 0,63.5996 -51.5577,115.1574 -115.1574,115.1574 -63.5996,0 -115.1574,-51.5578 -115.1574,-115.1574 0,-63.5997 51.5578,-115.1574 115.1574,-115.1574 63.5997,0 115.1574,51.5577 115.1574,115.1574 z"
       transform="matrix(-0.01302624,-0.2442004,0.2442004,-0.01302624,1116.3239,2886.8115)" />
    <path
       inkscape:connector-curvature="0"
       id="path5199"
       d="m 496.58394,294.87096 3.589,28.34531 80.783,-10.22776 3.767,29.76203 -41.1,5.20354 8.971,70.86279 6.998,55.27291 -63.777,8.07486 -121.946,56.9049"
       style="fill:none;stroke:#fed4e4;stroke-width:15;stroke-linecap:butt;stroke-linejoin:miter;stroke-miterlimit:4;stroke-opacity:0.92156863;stroke-dasharray:none;display:inline"
       sodipodi:nodetypes="ccccccccc" />
    <path
       inkscape:connector-curvature="0"
       id="path5201"
       d="m 794.04194,528.28141 -95.879,-85.67538 -5.26,-41.55181 -141.726,17.94201 -99.208,12.56011 -15.431,-121.88454"
       style="fill:none;stroke:#d4e9fe;stroke-width:15;stroke-linecap:butt;stroke-linejoin:miter;stroke-miterlimit:4;stroke-opacity:0.92156863;stroke-dasharray:none;display:inline"
       sodipodi:nodetypes="cccccc" />
    <path
       transform="matrix(0.24261107,-0.03071462,0.03071462,0.24261107,-1407.3391,1453.6621)"
       d="m 8582.256,-3184.2175 c 0,63.5996 -51.5577,115.1574 -115.1574,115.1574 -63.5996,0 -115.1574,-51.5578 -115.1574,-115.1574 0,-63.5997 51.5578,-115.1574 115.1574,-115.1574 63.5997,0 115.1574,51.5577 115.1574,115.1574 z"
       sodipodi:ry="115.15739"
       sodipodi:rx="115.15739"
       sodipodi:cy="-3184.2175"
       sodipodi:cx="8467.0986"
       id="path5203"
       style="fill:#d4e9fe;fill-opacity:0.92156863;stroke:#2d5e99;stroke-width:20;stroke-linecap:round;stroke-linejoin:round;stroke-miterlimit:4;stroke-opacity:1;stroke-dasharray:none;display:inline"
       sodipodi:type="arc" />
  </g>
</svg>
